<?xml version="1.0" standalone="no"?>
<!DOCTYPE svg PUBLIC "-//W3C//DTD SVG 20010904//EN"
 "http://www.w3.org/TR/2001/REC-SVG-20010904/DTD/svg10.dtd">
<svg version="1.0" xmlns="http://www.w3.org/2000/svg"
 width="2000.000000pt" height="1247.000000pt" viewBox="0 0 2000.000000 1247.000000"
 preserveAspectRatio="xMidYMid meet">

<g transform="translate(0.000000,1247.000000) scale(0.100000,-0.100000)"
fill="#000000" stroke="none">
<path d="M9731 12448 c-10 -26 -5 -43 54 -218 78 -228 133 -479 167 -755 8
-61 12 -222 12 -410 -1 -306 -14 -516 -49 -775 -31 -222 -46 -415 -55 -684 -5
-153 -7 -283 -4 -287 10 -16 54 -9 75 12 35 35 77 140 133 338 96 334 177 706
215 996 l18 130 12 -45 c55 -194 97 -451 111 -688 26 -402 -49 -929 -209
-1487 l-49 -169 24 -62 c13 -35 34 -109 46 -166 40 -182 28 -639 -23 -932 -6
-32 -9 -60 -6 -62 4 -4 124 277 182 426 116 301 234 660 317 967 23 86 43 152
45 147 1 -5 23 -164 48 -354 62 -465 114 -820 121 -831 3 -5 13 -9 22 -9 89
-1 281 -204 282 -299 0 -13 18 -50 40 -83 44 -67 53 -93 76 -227 11 -65 15
-128 12 -205 -5 -103 -3 -114 18 -151 42 -73 57 -157 51 -285 -2 -63 -8 -124
-13 -135 -4 -11 30 32 75 95 46 63 101 136 122 161 22 26 39 56 39 67 0 29
-163 1101 -215 1417 -219 1326 -412 2106 -730 2949 -251 667 -417 1027 -600
1301 -87 130 -200 264 -257 305 -50 37 -95 40 -107 8z"/>
<path d="M10271 12318 c-12 -32 9 -93 60 -180 47 -80 46 -78 283 -567 281
-578 415 -905 579 -1407 198 -603 315 -1082 476 -1940 86 -459 287 -1463 293
-1470 2 -1 32 16 68 38 120 77 164 89 312 87 99 -1 133 2 144 13 12 11 9 43
-20 213 -147 855 -364 1885 -496 2354 -338 1197 -854 2225 -1333 2653 -219
196 -344 266 -366 206z"/>
<path d="M11703 11113 c-7 -19 19 -96 91 -267 117 -277 289 -767 381 -1084
196 -674 382 -1597 510 -2527 15 -104 28 -195 30 -201 2 -8 34 0 89 23 120 48
264 83 373 90 88 6 92 7 88 27 -3 12 -23 107 -44 211 -255 1236 -643 2442
-989 3080 -151 279 -354 563 -454 636 -47 33 -66 36 -75 12z"/>
<path d="M9640 10765 c-14 -7 -39 -33 -56 -57 -45 -63 -335 -572 -569 -998
-64 -118 -131 -240 -148 -270 l-30 -55 44 41 c63 58 104 80 182 94 94 17 173
7 248 -30 34 -17 62 -30 64 -28 17 20 178 562 256 863 48 186 52 209 53 324 1
75 -3 125 -9 127 -5 2 -21 -3 -35 -11z"/>
<path d="M8754 9233 c-214 -401 -334 -632 -625 -1204 -181 -355 -329 -651
-329 -657 0 -6 9 -13 20 -17 37 -12 120 -82 168 -142 27 -33 74 -110 105 -170
46 -91 61 -111 91 -125 l35 -17 79 152 c44 84 139 271 212 416 129 259 132
267 165 415 101 447 140 797 115 1036 -25 252 -25 269 4 348 14 39 24 72 22
72 -2 0 -30 -48 -62 -107z"/>
<path d="M9133 9133 c34 -214 33 -520 -3 -780 -59 -437 -167 -872 -402 -1618
-246 -782 -273 -876 -317 -1100 -62 -306 -75 -449 -76 -790 0 -348 9 -439 72
-690 51 -206 116 -363 210 -510 66 -103 111 -155 135 -155 18 0 17 5 -16 64
-169 302 -254 771 -227 1252 28 507 103 830 411 1769 273 832 368 1255 395
1765 12 205 -21 454 -87 659 -38 119 -64 171 -84 171 -13 0 -15 -7 -11 -37z"/>
<path d="M17475 8928 c-25 -498 -114 -878 -476 -2036 -273 -875 -391 -1362
-440 -1822 -20 -188 -15 -539 10 -706 38 -257 114 -484 216 -653 55 -91 187
-259 192 -245 2 6 -16 53 -40 105 -117 251 -164 491 -174 879 -15 617 98 1222
402 2150 345 1054 463 1655 415 2108 -22 200 -60 352 -89 352 -5 0 -12 -60
-16 -132z"/>
<path d="M9374 8996 c-3 -8 4 -78 16 -156 45 -304 45 -636 0 -985 -36 -282
-82 -490 -196 -882 -116 -403 -293 -1147 -309 -1303 -7 -64 5 -94 28 -70 8 8
40 74 72 145 32 72 87 194 122 273 249 561 482 1285 527 1637 44 342 21 733
-59 1010 -57 199 -176 395 -201 331z"/>
<path d="M2675 8890 c-3 -5 8 -51 25 -102 63 -191 74 -269 74 -523 0 -163 -5
-265 -17 -350 -10 -66 -20 -191 -24 -277 -5 -138 -4 -158 9 -158 9 0 23 11 32
25 36 55 144 497 147 600 l1 40 13 -30 c50 -114 63 -440 26 -650 -68 -383
-169 -651 -472 -1250 l-197 -390 -86 -3 c-53 -2 -86 1 -86 7 0 6 33 88 74 183
91 214 195 484 231 601 22 69 25 91 16 100 -10 9 -19 4 -42 -23 -43 -51 -433
-636 -509 -762 l-63 -108 -64 0 c-35 0 -63 3 -63 6 0 4 51 104 114 223 513
976 653 1297 795 1813 59 218 64 308 15 267 -27 -22 -319 -548 -549 -989 -139
-264 -490 -974 -620 -1251 -68 -145 -69 -147 -109 -159 -67 -19 -222 -96 -299
-147 -158 -105 -316 -286 -427 -489 -12 -23 -21 -46 -19 -52 2 -5 56 37 119
95 178 162 337 260 565 348 239 93 393 119 690 118 225 -1 412 -17 642 -58
247 -43 374 -57 592 -63 l215 -7 8 -30 c4 -16 6 -36 3 -43 -4 -10 -128 -13
-642 -11 -351 1 -681 -2 -733 -6 -100 -8 -166 -27 -155 -45 30 -48 547 -179
895 -226 166 -23 545 -24 642 -2 l66 15 7 -54 c4 -30 5 -57 2 -59 -28 -28
-487 -38 -712 -15 -66 7 -199 23 -295 36 -325 44 -412 50 -775 50 -362 -1
-440 -8 -582 -50 -49 -15 -54 -19 -82 -78 -81 -166 -138 -556 -100 -691 14
-50 24 -38 49 58 30 111 81 261 151 441 64 165 62 162 127 149 l30 -6 -23 -52
c-163 -369 -249 -871 -201 -1166 20 -122 42 -175 71 -175 17 0 21 9 28 70 14
129 96 404 223 745 52 142 207 517 218 527 2 3 27 2 55 -2 l50 -7 -34 -67
c-66 -131 -187 -406 -260 -590 -107 -272 -148 -437 -161 -652 -12 -193 14
-212 69 -49 82 243 205 505 510 1084 l130 249 191 -6 c105 -3 290 -11 411 -17
164 -9 271 -9 417 -1 270 16 347 31 471 93 42 21 59 25 62 16 3 -7 25 -74 51
-148 135 -398 306 -728 501 -970 89 -110 236 -248 333 -312 79 -52 314 -178
332 -178 27 0 -4 37 -92 109 -377 312 -671 799 -860 1426 -123 408 -193 751
-315 1555 -101 662 -145 900 -227 1225 -107 426 -293 908 -431 1117 -87 134
-151 192 -172 158z m491 -1932 c51 -371 109 -740 155 -978 22 -118 43 -231 46
-250 l5 -36 -98 8 c-55 5 -189 20 -299 34 -110 14 -238 30 -285 35 -47 5 -99
12 -117 15 l-31 5 75 157 c169 353 288 615 348 767 59 150 155 447 155 483 0
8 3 12 6 9 4 -4 22 -116 40 -249z"/>
<path d="M17686 8804 c14 -92 9 -325 -10 -479 -52 -420 -238 -1336 -332 -1639
-87 -276 -244 -998 -244 -1115 0 -101 24 -116 72 -44 98 146 575 1497 665
1883 51 220 74 550 54 785 -21 253 -91 525 -160 619 -44 62 -55 59 -45 -10z"/>
<path d="M2916 8831 c-7 -12 1 -36 29 -81 44 -71 239 -489 290 -620 136 -349
226 -683 315 -1165 52 -284 219 -1091 256 -1240 49 -195 91 -330 125 -397 60
-119 70 -74 59 269 -13 379 -27 519 -86 874 -89 540 -204 1043 -301 1324 -164
474 -366 822 -567 982 -77 60 -108 74 -120 54z"/>
<path d="M9777 8313 c-3 -10 -5 -100 -6 -201 -3 -482 -80 -820 -462 -2019
-140 -441 -171 -544 -233 -791 l-52 -203 -64 -28 c-75 -32 -199 -105 -217
-129 -30 -38 -12 -39 95 -5 264 83 465 83 722 -3 254 -85 435 -217 689 -504
134 -152 360 -377 436 -434 102 -77 220 -144 300 -169 109 -34 375 -30 375 7
0 7 -23 18 -56 25 -30 7 -96 33 -145 58 -148 74 -304 210 -556 487 -227 248
-319 340 -433 436 -161 134 -236 181 -417 261 l-33 14 128 69 c168 91 293 168
367 224 33 25 132 95 220 155 348 238 527 416 596 596 24 60 33 221 14 228 -5
1 -22 -16 -37 -40 -107 -169 -273 -305 -668 -547 -170 -104 -364 -236 -455
-311 -83 -67 -201 -188 -272 -279 l-51 -65 -51 3 c-35 3 -51 8 -51 18 0 7 18
77 40 155 22 78 37 145 34 150 -17 28 -57 -15 -166 -180 -45 -68 -84 -119 -85
-114 -4 11 56 233 103 380 87 274 233 415 694 673 501 280 717 496 774 773 17
81 19 130 8 160 -6 14 -12 8 -31 -30 -62 -130 -199 -272 -367 -385 -55 -37
-207 -128 -339 -203 -257 -147 -351 -210 -457 -306 -38 -33 -68 -57 -68 -52 0
4 9 40 20 78 114 392 221 905 254 1225 41 394 27 611 -51 782 -28 61 -39 70
-46 41z"/>
<path d="M3560 8286 c0 -7 24 -74 54 -147 209 -524 319 -1024 446 -2039 72
-573 112 -826 176 -1090 81 -341 161 -573 289 -836 88 -184 137 -264 160 -264
21 0 19 15 -14 148 -81 324 -116 524 -231 1327 -132 921 -182 1201 -290 1621
-113 439 -246 808 -371 1026 -99 172 -219 312 -219 254z"/>
<path d="M18035 8083 c-32 -307 -78 -574 -131 -773 -79 -294 -233 -813 -399
-1340 -214 -682 -290 -1010 -330 -1434 -18 -191 -20 -442 -4 -452 16 -9 25 9
55 106 14 47 68 200 119 340 51 140 109 307 130 370 92 282 328 664 539 873
101 99 174 146 242 153 67 7 95 -10 113 -66 17 -54 5 -160 -33 -288 -27 -89
-53 -206 -93 -407 -46 -237 -42 -599 8 -834 55 -251 158 -458 308 -615 113
-117 261 -210 327 -204 l35 3 -61 45 c-310 225 -477 648 -457 1160 9 228 37
381 120 650 70 231 101 444 86 597 -11 102 -33 157 -82 200 -123 108 -300 50
-514 -168 -124 -127 -234 -274 -338 -453 -16 -27 -30 -45 -32 -39 -6 16 76
241 119 326 61 123 123 211 223 315 101 106 180 167 281 214 64 31 76 33 174
33 89 0 111 -3 146 -22 89 -47 133 -124 170 -293 27 -120 26 -507 -1 -660 -10
-58 -20 -140 -22 -182 -6 -98 11 -104 62 -23 61 95 173 416 201 577 22 126 14
324 -16 423 -28 89 -83 198 -126 251 -110 136 -357 196 -554 135 -109 -33
-259 -115 -356 -193 l-85 -69 16 38 c64 153 216 278 400 328 33 9 110 19 170
22 275 14 510 -108 612 -317 63 -128 74 -182 80 -371 7 -239 -14 -378 -142
-909 -119 -493 -129 -552 -130 -745 0 -145 3 -178 20 -225 31 -86 45 -74 76
65 30 136 55 211 144 441 284 727 364 1298 239 1696 -90 285 -269 462 -542
535 -85 23 -117 26 -262 27 -153 0 -171 -2 -245 -27 -101 -34 -222 -102 -304
-172 -36 -30 -66 -53 -68 -51 -2 2 7 43 21 91 69 237 133 593 157 864 20 234
0 463 -45 500 -12 10 -15 3 -21 -46z"/>
<path d="M7436 7059 c-3 -8 -17 -84 -31 -169 -14 -85 -27 -155 -28 -156 -1 0
-45 -11 -97 -23 -660 -157 -1255 -820 -1461 -1626 -72 -281 -86 -653 -28 -772
23 -48 69 -83 109 -83 67 0 181 102 421 376 275 314 446 548 649 889 46 77 87
144 91 149 4 4 -19 -76 -52 -180 -101 -316 -153 -566 -165 -788 l-7 -121 -60
-90 c-198 -296 -420 -541 -594 -655 -148 -98 -277 -135 -445 -128 -93 3 -111
7 -170 36 -115 57 -201 169 -257 337 -59 179 -76 415 -46 669 72 614 335 1182
774 1674 56 62 101 117 101 122 0 15 -27 12 -63 -6 -121 -63 -329 -258 -456
-429 -221 -300 -429 -721 -516 -1047 -45 -167 -59 -295 -60 -523 0 -180 3
-226 23 -323 48 -240 127 -405 257 -537 126 -130 244 -175 455 -175 193 0 344
35 504 118 170 87 310 220 492 468 l107 145 19 -72 c48 -184 146 -365 258
-479 72 -72 214 -179 225 -168 3 2 -20 36 -50 75 -99 128 -179 280 -224 425
-37 121 -52 230 -58 408 -12 376 38 624 237 1160 111 300 167 469 204 617 85
335 91 551 20 773 -24 77 -68 138 -78 109z m-73 -421 c-13 -72 -67 -219 -118
-325 -158 -330 -450 -748 -940 -1348 -130 -159 -246 -298 -257 -308 -20 -17
-22 -17 -46 5 -23 22 -24 27 -18 103 17 240 129 600 268 865 185 354 450 654
753 852 81 53 337 188 357 188 4 0 5 -15 1 -32z"/>
<path d="M13626 7052 c-2 -9 -12 -64 -21 -121 -9 -58 -20 -126 -26 -151 l-10
-46 -97 -23 c-709 -167 -1337 -921 -1499 -1801 -13 -71 -17 -150 -18 -315 0
-219 0 -220 27 -275 28 -57 68 -90 109 -90 50 0 110 44 230 168 326 335 609
703 844 1099 49 83 91 151 92 149 1 -1 -23 -80 -53 -176 -103 -327 -147 -529
-165 -770 l-11 -145 -51 -79 c-144 -222 -363 -481 -503 -594 -101 -81 -257
-164 -353 -188 -46 -12 -97 -15 -180 -12 -147 4 -204 28 -293 120 -216 224
-265 716 -128 1274 112 453 362 930 669 1273 149 166 163 189 114 177 -39 -10
-124 -67 -218 -147 -289 -244 -608 -770 -763 -1259 -62 -196 -86 -366 -86
-615 1 -330 70 -581 215 -776 141 -191 299 -258 579 -246 383 16 628 166 925
564 l119 161 31 -102 c80 -261 208 -445 394 -568 41 -26 76 -47 78 -44 2 2
-27 44 -65 95 -201 268 -288 586 -268 986 16 317 72 544 251 1020 190 504 260
786 259 1045 -1 144 -22 259 -65 361 -24 56 -54 80 -63 51z m-71 -414 c-50
-253 -263 -638 -613 -1108 -255 -343 -696 -880 -723 -880 -36 0 -52 43 -45
117 40 385 225 855 466 1178 226 303 456 500 770 657 74 38 138 68 143 68 5 0
6 -15 2 -32z"/>
<path d="M7640 6994 c0 -19 5 -89 11 -155 24 -267 -15 -504 -196 -1199 -19
-74 -55 -253 -80 -397 -61 -353 -59 -442 6 -364 31 38 310 612 370 763 197
494 202 883 16 1243 -69 133 -127 183 -127 109z"/>
<path d="M13834 7015 c-4 -9 -1 -64 5 -123 30 -286 -3 -526 -144 -1067 -65
-250 -90 -362 -141 -655 -35 -203 -41 -291 -21 -308 27 -22 65 41 221 369 214
448 264 579 317 834 29 141 32 367 5 490 -38 172 -119 365 -184 438 -37 40
-50 45 -58 22z"/>
<path d="M10934 6913 c-18 -100 -97 -207 -319 -429 -120 -120 -211 -201 -310
-274 -77 -57 -181 -135 -232 -172 -106 -79 -254 -222 -278 -267 -34 -67 6 -67
173 0 189 76 533 248 652 326 135 89 216 176 276 298 78 158 107 330 82 474
-15 84 -33 102 -44 44z"/>
<path d="M15535 6896 c-185 -60 -324 -170 -429 -339 -145 -232 -190 -455 -189
-927 0 -215 5 -319 22 -475 45 -399 20 -750 -65 -918 -35 -69 -105 -135 -199
-187 -100 -56 -103 -74 -17 -78 244 -11 422 147 497 441 59 234 54 477 -22
1012 -41 293 -33 664 18 854 42 158 141 324 262 444 63 62 98 87 171 122 50
24 108 47 129 51 61 11 42 24 -35 24 -48 -1 -97 -9 -143 -24z"/>
<path d="M6930 6775 c-384 -78 -872 -459 -1170 -915 -76 -117 -125 -218 -185
-380 -157 -428 -225 -808 -195 -1090 30 -282 116 -452 266 -526 48 -23 63 -26
127 -22 52 4 90 14 137 35 89 42 235 171 216 191 -4 3 -52 -9 -107 -27 -86
-29 -109 -33 -168 -29 -117 9 -188 68 -228 193 -25 77 -30 431 -9 551 68 367
266 863 462 1155 247 369 678 729 992 830 40 13 71 28 69 34 -5 15 -132 15
-207 0z"/>
<path d="M13144 6779 c-323 -55 -748 -350 -1057 -734 -151 -187 -229 -326
-316 -558 -228 -608 -266 -1140 -104 -1450 124 -236 356 -260 579 -61 70 63
90 94 61 94 -8 0 -53 -13 -100 -30 -146 -50 -241 -39 -318 39 -73 72 -90 140
-97 373 -5 222 7 313 74 545 114 400 313 819 499 1048 157 194 363 387 550
514 138 94 222 139 327 175 49 17 90 36 91 41 3 13 -122 16 -189 4z"/>
<path d="M15790 6774 c-175 -27 -247 -63 -358 -178 -118 -123 -191 -262 -212
-402 -15 -103 -12 -411 5 -563 16 -141 46 -330 95 -594 34 -181 60 -378 60
-453 0 -35 5 -56 16 -65 25 -20 38 6 65 129 22 99 24 129 24 402 0 211 -4 323
-15 395 -10 67 -15 174 -15 325 1 193 4 239 23 325 49 228 129 358 259 423
103 52 160 66 268 66 108 0 179 -13 264 -50 29 -13 57 -24 62 -24 25 0 2 41
-54 96 -127 124 -325 192 -487 168z"/>
<path d="M8016 6439 c-13 -283 -40 -399 -276 -1174 -172 -568 -207 -708 -230
-917 -12 -118 -13 -445 -1 -452 19 -12 47 44 143 291 131 335 200 537 238 698
18 72 54 209 82 304 103 363 150 594 169 841 16 218 -1 352 -61 469 -56 111
-56 111 -64 -60z"/>
<path d="M14210 6494 c-1 -275 -42 -462 -265 -1189 -162 -527 -202 -678 -231
-860 -19 -123 -31 -514 -17 -540 10 -17 12 -17 29 4 18 20 84 186 228 566 36
94 83 240 105 325 23 85 67 247 98 360 119 437 153 599 174 835 20 239 3 385
-62 512 -52 103 -59 101 -59 -13z"/>
<path d="M15880 6490 c-103 -22 -201 -92 -253 -182 -39 -65 -57 -149 -63 -293
-7 -139 -2 -204 46 -585 79 -626 80 -843 5 -1105 -56 -196 -190 -412 -327
-526 -133 -111 -323 -172 -533 -173 -142 0 -211 15 -335 75 -69 34 -101 58
-169 127 -70 71 -83 81 -77 58 20 -81 135 -216 240 -281 151 -93 273 -120 511
-112 195 7 273 23 390 81 257 128 470 458 541 841 16 86 19 149 18 455 0 311
-3 375 -23 520 -41 303 -51 414 -51 581 0 139 3 178 20 231 24 79 72 132 133
149 89 24 327 -5 450 -56 30 -13 20 22 -15 49 -153 116 -362 176 -508 146z"/>
<path d="M10659 5277 c-74 -51 -159 -110 -188 -131 l-54 -40 24 -19 c13 -10
71 -65 129 -122 l105 -103 107 -8 107 -7 5 24 c2 13 14 75 25 137 12 62 37
162 57 223 19 61 33 113 30 116 -5 6 -142 22 -186 22 -15 0 -78 -36 -161 -92z"/>
<path d="M1245 5325 c-224 -50 -435 -168 -523 -294 -71 -100 -124 -231 -94
-231 4 0 30 19 57 42 91 76 496 333 632 402 38 19 75 42 83 51 12 15 12 19 -5
31 -23 17 -71 17 -150 -1z"/>
<path d="M8960 4904 c-159 -31 -269 -123 -322 -272 -26 -74 -35 -273 -18 -409
25 -207 71 -398 115 -484 53 -101 186 -249 225 -249 26 0 25 5 -9 82 -86 190
-171 633 -171 894 0 134 14 188 63 241 59 64 116 78 272 68 66 -4 158 -8 205
-9 80 -1 85 0 88 21 7 48 -168 111 -328 118 -52 2 -106 1 -120 -1z"/>
<path d="M16956 4677 c-43 -65 -71 -318 -63 -567 9 -276 51 -433 141 -528 57
-61 92 -82 134 -82 l30 0 -33 68 c-41 82 -66 182 -105 422 -20 123 -32 237
-36 340 -3 85 -9 191 -15 235 -18 145 -24 158 -53 112z"/>
<path d="M8982 4650 c-20 -13 -42 -39 -55 -68 -20 -42 -22 -64 -22 -202 0
-154 10 -207 40 -217 6 -2 21 40 34 94 25 103 81 287 85 282 30 -42 390 -419
462 -485 317 -291 602 -480 835 -554 115 -36 290 -46 247 -14 -7 6 -42 21 -78
33 -167 59 -261 130 -495 377 -506 535 -700 698 -904 758 -72 21 -109 20 -149
-4z"/>
<path d="M18610 4598 c-31 -87 -20 -387 20 -544 22 -85 82 -208 138 -283 42
-55 87 -92 207 -166 86 -53 113 -62 121 -41 4 11 -15 39 -58 85 -108 114 -222
322 -273 496 -14 50 -39 166 -56 259 -16 94 -35 181 -42 195 -18 38 -43 38
-57 -1z"/>
<path d="M9740 4570 c-27 -17 -16 -38 190 -355 144 -222 194 -288 290 -379
138 -130 269 -196 456 -232 155 -29 437 -4 471 42 7 9 10 20 8 25 -3 4 -37 15
-75 23 -141 32 -276 95 -456 214 -119 78 -243 183 -394 333 -86 86 -159 147
-234 197 -134 90 -238 143 -256 132z"/>
<path d="M4150 4535 c0 -49 45 -229 85 -340 93 -258 211 -461 334 -578 52 -49
99 -79 218 -140 83 -42 163 -77 177 -77 49 0 31 35 -56 108 -235 197 -416 442
-611 826 -53 103 -101 194 -108 202 -15 18 -39 18 -39 -1z"/>
<path d="M7239 4298 c-17 -63 -7 -344 16 -438 36 -151 80 -218 203 -308 66
-48 112 -69 112 -51 0 5 -23 56 -50 113 -65 136 -112 267 -139 391 -28 126
-69 272 -88 308 -20 40 -40 34 -54 -15z"/>
<path d="M13438 4318 c-19 -34 -16 -339 5 -441 18 -86 54 -173 93 -224 47 -62
210 -174 227 -156 4 3 -13 44 -37 92 -74 147 -113 258 -165 469 -64 260 -91
316 -123 260z"/>
<path d="M14175 4101 c-8 -14 44 -114 99 -188 52 -71 99 -108 195 -155 63 -31
71 -33 176 -32 155 2 331 51 418 118 41 31 62 76 35 76 -7 0 -70 -14 -141 -32
l-127 -32 -133 11 c-201 17 -320 66 -454 187 -34 31 -64 52 -68 47z"/>
<path d="M7953 3963 c-19 -55 -66 -169 -78 -193 -13 -26 -12 -32 18 -91 29
-57 32 -75 35 -166 3 -93 1 -108 -22 -158 -14 -31 -39 -74 -56 -95 -60 -75
-180 -130 -285 -130 l-52 0 -93 -202 c-227 -495 -459 -1054 -553 -1339 -145
-434 -207 -778 -210 -1170 -2 -191 -1 -208 17 -228 38 -42 64 -18 91 89 48
189 254 701 444 1110 146 311 610 1216 929 1810 l100 185 55 3 56 3 -45 70
c-65 99 -145 271 -190 404 l-39 115 -58 0 c-46 0 -59 -4 -64 -17z"/>
<path d="M9250 3807 c0 -4 17 -51 39 -104 46 -117 61 -243 38 -311 -14 -40
-14 -40 13 -46 38 -7 526 -20 520 -13 -3 3 -52 36 -110 74 -141 93 -280 206
-472 382 -16 13 -28 22 -28 18z"/>
<path d="M6722 3458 c-68 -58 -71 -62 -117 -181 -328 -841 -477 -1837 -365
-2452 44 -247 81 -342 138 -359 51 -14 60 2 72 137 18 202 60 378 202 827 155
493 336 985 555 1508 47 112 84 204 82 206 -2 1 -23 8 -46 15 -74 21 -221 128
-340 247 l-111 112 -70 -60z"/>
<path d="M6275 3198 c-44 -16 -127 -40 -185 -52 l-105 -21 -17 -90 c-77 -412
-72 -969 9 -953 20 4 24 15 83 238 63 237 163 529 305 893 9 21 7 21 -90 -15z"/>
<path d="M13380 3153 c5 -16 25 -82 46 -148 77 -254 211 -604 339 -885 102
-225 306 -615 357 -684 47 -63 98 -103 112 -89 14 15 3 84 -53 314 -72 294
-137 590 -186 837 -33 171 -115 627 -115 643 0 4 -17 3 -39 -2 -21 -5 -108 -7
-192 -5 -126 3 -165 7 -214 25 -32 11 -60 21 -62 21 -1 0 2 -12 7 -27z"/>
<path d="M12240 3140 c-61 -12 -148 -18 -243 -19 l-148 -1 7 -22 c16 -56 121
-325 188 -486 271 -650 567 -1154 937 -1597 245 -292 472 -492 775 -681 158
-99 616 -334 651 -334 56 0 5 71 -120 168 -153 118 -368 313 -494 448 -576
615 -1063 1461 -1388 2414 -26 74 -48 125 -56 126 -8 1 -57 -7 -109 -16z"/>
<path d="M13025 2770 c-7 -24 18 -219 46 -348 34 -156 165 -530 280 -800 192
-450 491 -870 739 -1039 167 -113 645 -351 724 -360 31 -4 47 0 65 14 22 18
23 21 8 49 -19 36 -73 87 -197 186 -300 240 -597 583 -895 1033 -168 254 -269
432 -474 839 -182 361 -234 446 -274 446 -9 0 -18 -9 -22 -20z"/>
</g>
</svg>
