<svg xmlns="http://www.w3.org/2000/svg" version="1.1" xmlns:xlink="http://www.w3.org/1999/xlink" xmlns:svgjs="http://svgjs.dev/svgjs" width="128" height="128" viewBox="0 0 128 128"><g transform="matrix(0.8046875,0,0,0.8046875,12.333870967741937,12.333870967741937)"><svg viewBox="0 0 155 155" data-background-color="#000000" preserveAspectRatio="xMidYMid meet" height="128" width="128" xmlns="http://www.w3.org/2000/svg" xmlns:xlink="http://www.w3.org/1999/xlink"><g id="tight-bounds" transform="matrix(1,0,0,1,0.25,0.25)"><svg viewBox="0 0 154.5 154.5" height="154.5" width="154.5"><g><svg viewBox="0 0 154.5 154.5" height="154.5" width="154.5"><g transform="matrix(1,0,0,1,61.46663066967624,50.2438949702109)"><svg viewBox="0 0 31.56673866064752 54.012210059578194" height="54.012210059578194" width="31.56673866064752"><g><svg viewBox="0 0 31.56673866064752 54.012210059578194" height="54.012210059578194" width="31.56673866064752"><g><svg viewBox="0 0 31.56673866064752 54.012210059578194" height="54.012210059578194" width="31.56673866064752"><g id="textblocktransform"><svg viewBox="0 0 31.56673866064752 54.012210059578194" height="54.012210059578194" width="31.56673866064752" id="textblock"><g><svg viewBox="0 0 31.56673866064752 54.012210059578194" height="54.012210059578194" width="31.56673866064752"><g transform="matrix(1,0,0,1,0,0)"><svg width="31.56673866064752" viewBox="1.03 -30.42 17.23 29.490000000000002" height="54.012210059578194" data-palette-color="url(#9445de41-07c3-4f46-8925-3ae691b59363)"></svg></g></svg></g></svg></g></svg></g></svg></g></svg></g><g id="text-0"></g><g id="text-1"></g></svg></g><defs></defs><mask id="85bf612a-2db9-421a-af34-76c82d9f94f4"><g id="SvgjsG2886"><svg viewBox="0 0 154.5 154.5" height="154.5" width="154.5"><g><svg viewBox="0 0 154.5 154.5" height="154.5" width="154.5"><g transform="matrix(1,0,0,1,61.46663066967624,50.2438949702109)"><svg viewBox="0 0 31.56673866064752 54.012210059578194" height="54.012210059578194" width="31.56673866064752"><g><svg viewBox="0 0 31.56673866064752 54.012210059578194" height="54.012210059578194" width="31.56673866064752"><g><svg viewBox="0 0 31.56673866064752 54.012210059578194" height="54.012210059578194" width="31.56673866064752"><g id="SvgjsG2885"><svg viewBox="0 0 31.56673866064752 54.012210059578194" height="54.012210059578194" width="31.56673866064752" id="SvgjsSvg2884"><g><svg viewBox="0 0 31.56673866064752 54.012210059578194" height="54.012210059578194" width="31.56673866064752"><g transform="matrix(1,0,0,1,0,0)"><svg width="31.56673866064752" viewBox="1.03 -30.42 17.23 29.490000000000002" height="54.012210059578194" data-palette-color="url(#9445de41-07c3-4f46-8925-3ae691b59363)"><path d="M8.79-30.42L8.79-30.42Q10.6-30.42 11.94-29.37 13.28-28.32 14.28-26.56 15.28-24.8 15.97-22.51 16.65-20.21 17.09-17.7 17.53-15.19 17.77-12.62 18.02-10.06 18.12-7.81 18.21-5.57 18.24-3.76 18.26-1.95 18.26-0.93L18.26-0.93 17.09-0.93 15.23-11.23Q14.99-11.47 14.14-11.52 13.28-11.57 12.13-11.47 10.99-11.38 9.64-11.21 8.3-11.04 7.1-10.96 5.91-10.89 4.93-10.91 3.96-10.94 3.52-11.23L3.52-11.23 3.52-0.93 1.03-0.93Q1.03-1.07 1.05-1.49 1.07-1.9 1.07-2.34 1.07-2.78 1.12-3.17 1.17-3.56 1.17-3.71L1.17-3.71Q1.46-6.54 1.64-9.45 1.81-12.35 2.05-15.09 2.29-17.82 2.71-20.31 3.13-22.8 3.91-24.83 4.69-26.86 5.86-28.3 7.03-29.74 8.79-30.42ZM9.57-28.17L9.57-28.17Q8.3-28.17 7.45-27.27 6.59-26.37 6.05-24.93 5.52-23.49 5.22-21.73 4.93-19.97 4.83-18.29 4.74-16.6 4.71-15.16 4.69-13.72 4.69-12.94L4.69-12.94Q7.08-12.94 9.57-13.31 12.06-13.67 14.26-14.06L14.26-14.06Q14.31-14.26 14.33-14.7 14.36-15.14 14.38-15.67 14.4-16.21 14.43-16.7 14.45-17.19 14.45-17.33L14.45-17.33Q14.45-18.95 14.28-20.41 14.11-21.88 13.6-23.27 13.09-24.66 12.13-25.88 11.18-27.1 9.57-28.17Z" opacity="1" transform="matrix(1,0,0,1,0,0)" fill="white" class="wordmark-text-0" id="SvgjsPath2883"></path></svg></g></svg></g></svg></g></svg></g></svg></g></svg></g><g id="SvgjsG2882"><path d="M2.769 53.121v0c0.211-0.629 0.575-1.114 1.092-1.456 0.52-0.348 1.142-0.592 1.867-0.73 0.733-0.142 1.537-0.201 2.412-0.176 0.873 0.032 1.773 0.118 2.7 0.259 0.921 0.14 1.84 0.317 2.757 0.534 0.919 0.21 1.774 0.43 2.565 0.66 0.792 0.23 1.504 0.445 2.137 0.643 0.624 0.203 1.114 0.363 1.47 0.483v0l-0.204 0.609-5.686-0.838c-0.112 0.061-0.228 0.238-0.347 0.53-0.111 0.288-0.217 0.637-0.32 1.048-0.103 0.411-0.2 0.858-0.292 1.343-0.098 0.483-0.205 0.938-0.321 1.366-0.113 0.421-0.23 0.802-0.352 1.143-0.126 0.332-0.265 0.558-0.417 0.676v0l5.362 1.8-0.435 1.295c-0.051-0.017-0.145-0.052-0.282-0.105-0.142-0.062-0.289-0.118-0.442-0.17-0.152-0.051-0.293-0.105-0.422-0.163-0.133-0.066-0.225-0.107-0.276-0.124v0c-0.95-0.432-1.917-0.845-2.901-1.239-0.988-0.402-1.945-0.805-2.87-1.207-0.918-0.4-1.785-0.818-2.599-1.254-0.815-0.436-1.529-0.906-2.145-1.409-0.613-0.51-1.099-1.051-1.458-1.624-0.365-0.575-0.563-1.206-0.593-1.894zM4.068 53.101v0c-0.147 0.438-0.112 0.86 0.105 1.265 0.211 0.403 0.536 0.781 0.977 1.133 0.44 0.353 0.947 0.682 1.523 0.988 0.573 0.313 1.147 0.583 1.72 0.811 0.574 0.228 1.106 0.431 1.597 0.61 0.499 0.175 0.886 0.308 1.159 0.4v0c0.279-0.832 0.5-1.701 0.663-2.607 0.163-0.906 0.306-1.763 0.428-2.57v0c-0.063-0.043-0.17-0.092-0.321-0.15-0.15-0.058-0.319-0.125-0.505-0.201-0.182-0.068-0.358-0.134-0.527-0.198-0.161-0.068-0.267-0.111-0.317-0.128v0c-0.559-0.188-1.103-0.335-1.632-0.442-0.527-0.113-1.062-0.162-1.604-0.146-0.542 0.016-1.082 0.117-1.618 0.304-0.536 0.187-1.086 0.498-1.648 0.931z" fill="black"></path><path d="M30.949 33.542v0c-0.696-0.752-0.995-1.488-0.897-2.21 0.099-0.721 0.482-1.392 1.15-2.01v0c0.26-0.241 0.511-0.464 0.751-0.668 0.245-0.199 0.495-0.367 0.752-0.505 0.257-0.147 0.536-0.259 0.837-0.338 0.302-0.088 0.655-0.136 1.058-0.144v0c-0.036-0.039-0.109-0.123-0.218-0.25-0.109-0.137-0.229-0.277-0.361-0.419-0.132-0.142-0.257-0.278-0.375-0.406-0.114-0.123-0.196-0.211-0.246-0.265v0c-0.233-0.222-0.523-0.52-0.869-0.893-0.346-0.373-0.731-0.729-1.154-1.068-0.423-0.338-0.887-0.603-1.391-0.793-0.505-0.19-1.038-0.194-1.599-0.011v0c-0.275 0.255-0.49 0.536-0.644 0.843-0.149 0.312-0.294 0.629-0.434 0.95-0.136 0.327-0.283 0.641-0.442 0.943-0.158 0.302-0.375 0.581-0.65 0.836v0c-0.3-0.324-0.45-0.688-0.449-1.091 0.001-0.403 0.092-0.797 0.273-1.184 0.181-0.387 0.41-0.745 0.688-1.076 0.278-0.331 0.535-0.605 0.771-0.824v0c0.272-0.179 0.532-0.338 0.778-0.475 0.256-0.137 0.546-0.209 0.869-0.215 0.323-0.007 0.705 0.081 1.149 0.264 0.453 0.183 1.002 0.51 1.647 0.98 0.65 0.475 1.427 1.116 2.33 1.923 0.903 0.807 1.975 1.827 3.217 3.059v0c0.184 0.149 0.264 0.349 0.241 0.599-0.019 0.255-0.108 0.534-0.267 0.836-0.158 0.302-0.358 0.619-0.598 0.952-0.24 0.332-0.496 0.652-0.769 0.958-0.282 0.307-0.554 0.595-0.815 0.865-0.266 0.265-0.49 0.481-0.672 0.65v0c-0.236 0.218-0.513 0.402-0.831 0.551-0.314 0.144-0.639 0.236-0.978 0.276-0.347 0.039-0.683 0.007-1.005-0.096-0.323-0.102-0.605-0.284-0.847-0.544zM32.229 29.794v0c-0.49 0.792-0.747 1.436-0.77 1.933-0.029 0.501 0.084 0.854 0.336 1.058 0.253 0.204 0.606 0.274 1.059 0.211 0.453-0.063 0.903-0.248 1.35-0.552 0.448-0.305 0.841-0.733 1.18-1.285 0.348-0.551 0.56-1.204 0.636-1.959v0c-0.508-0.233-0.936-0.379-1.284-0.44-0.344-0.056-0.654-0.051-0.932 0.014-0.287 0.065-0.552 0.187-0.796 0.368-0.244 0.18-0.503 0.398-0.779 0.652z" fill="black"></path><path d="M58.64 18.335v0c-0.106-0.36-0.288-0.908-0.547-1.644-0.252-0.738-0.534-1.571-0.849-2.5-0.306-0.924-0.631-1.906-0.973-2.945-0.343-1.039-0.664-2.022-0.964-2.947-0.3-0.926-0.573-1.762-0.82-2.507-0.245-0.739-0.424-1.288-0.536-1.647v0c-0.059-0.151-0.142-0.42-0.249-0.807-0.106-0.388-0.226-0.799-0.358-1.236-0.133-0.436-0.252-0.848-0.359-1.236-0.106-0.388-0.18-0.659-0.219-0.815v0c0.24-0.062 0.467-0.068 0.679-0.018 0.218 0.041 0.414 0.16 0.59 0.357v0c0.132 0.353 0.303 0.859 0.514 1.517 0.217 0.657 0.462 1.41 0.735 2.259 0.273 0.85 0.567 1.763 0.88 2.741 0.318 0.97 0.627 1.931 0.926 2.884v0c0.03-0.098 0.062-0.189 0.096-0.273 0.034-0.085 0.055-0.135 0.065-0.152v0c0.141-0.258 0.306-0.559 0.494-0.904 0.188-0.346 0.387-0.701 0.598-1.066 0.211-0.365 0.422-0.727 0.634-1.086 0.212-0.359 0.405-0.685 0.579-0.979 0.174-0.293 0.32-0.532 0.439-0.714 0.121-0.176 0.197-0.268 0.229-0.277v0l1.12 0.242c-0.232 0.336-0.492 0.724-0.779 1.165-0.295 0.442-0.574 0.904-0.837 1.386-0.263 0.482-0.509 0.981-0.737 1.496-0.229 0.508-0.394 0.997-0.495 1.466v0c0.005 0.019 0.012 0.059 0.02 0.119 0.002 0.062 0.008 0.112 0.018 0.151v0c0.003 0.013 0.02 0.05 0.05 0.112 0.021 0.057 0.035 0.095 0.039 0.114v0l7.788 5.449c0.003 0.013 0.018 0.044 0.045 0.092 0.02 0.05 0.035 0.095 0.044 0.134v0c0.083 0.324-0.025 0.618-0.323 0.882v0l-8.419-5.806c-0.018-0.016-0.046-0.044-0.083-0.082-0.036-0.032-0.08-0.069-0.133-0.112v0l1.583 4.957c0.023 0.091 0.069 0.255 0.137 0.494 0.068 0.238 0.145 0.499 0.232 0.78 0.08 0.284 0.155 0.551 0.227 0.803 0.078 0.25 0.128 0.417 0.149 0.501v0c-0.227 0.058-0.447 0.063-0.66 0.014-0.218-0.041-0.408-0.162-0.57-0.362z" fill="black"></path><path d="M89.373 15.031v0c0.249-0.994 0.703-1.647 1.361-1.958 0.658-0.312 1.429-0.357 2.313-0.136v0c0.344 0.086 0.668 0.174 0.969 0.264 0.3 0.096 0.578 0.214 0.833 0.354 0.263 0.135 0.51 0.307 0.741 0.517 0.239 0.205 0.472 0.474 0.699 0.807v0c0.013-0.052 0.043-0.158 0.09-0.319 0.055-0.166 0.107-0.343 0.154-0.531 0.047-0.188 0.092-0.367 0.134-0.536 0.041-0.162 0.07-0.279 0.088-0.351v0c0.059-0.317 0.15-0.722 0.274-1.216 0.124-0.494 0.212-1.01 0.264-1.55 0.052-0.539 0.02-1.072-0.097-1.598-0.117-0.526-0.405-0.975-0.864-1.346v0c-0.364-0.091-0.716-0.117-1.057-0.078-0.343 0.045-0.687 0.097-1.034 0.155-0.348 0.065-0.691 0.113-1.031 0.146-0.34 0.032-0.691 0.003-1.055-0.089v0c0.107-0.429 0.33-0.753 0.669-0.972 0.338-0.219 0.718-0.359 1.14-0.418 0.422-0.06 0.848-0.064 1.277-0.012 0.429 0.052 0.799 0.117 1.111 0.196v0c0.299 0.13 0.573 0.261 0.824 0.393 0.255 0.14 0.473 0.343 0.655 0.609 0.182 0.267 0.317 0.635 0.406 1.107 0.094 0.479 0.12 1.118 0.079 1.915-0.043 0.804-0.155 1.805-0.338 3.002-0.183 1.197-0.451 2.653-0.804 4.366v0c-0.025 0.236-0.148 0.412-0.371 0.529-0.224 0.123-0.506 0.201-0.845 0.234-0.34 0.032-0.714 0.039-1.124 0.018-0.409-0.02-0.817-0.06-1.223-0.12-0.411-0.068-0.801-0.139-1.169-0.21-0.367-0.078-0.671-0.147-0.912-0.208v0c-0.312-0.078-0.617-0.21-0.916-0.395-0.292-0.184-0.547-0.406-0.764-0.668-0.222-0.27-0.379-0.568-0.47-0.895-0.091-0.327-0.093-0.662-0.007-1.006zM93.212 14.056v0c-0.931 0.022-1.611 0.159-2.04 0.411-0.436 0.25-0.67 0.537-0.703 0.859-0.033 0.323 0.101 0.657 0.402 1.002 0.3 0.345 0.701 0.621 1.201 0.829 0.5 0.208 1.074 0.304 1.72 0.286 0.651-0.009 1.314-0.188 1.989-0.537v0c-0.083-0.552-0.194-0.991-0.333-1.316-0.141-0.318-0.315-0.576-0.521-0.773-0.211-0.205-0.459-0.36-0.743-0.466-0.284-0.106-0.608-0.204-0.972-0.295z" fill="black"></path><path d="M118.529 29.141v0c0.237 0.217 0.416 0.468 0.537 0.752 0.121 0.275 0.228 0.559 0.321 0.854 0.093 0.295 0.203 0.577 0.328 0.846 0.13 0.274 0.314 0.52 0.551 0.738v0c0.276 0.254 0.608 0.467 0.994 0.64 0.387 0.173 0.785 0.284 1.195 0.332 0.415 0.053 0.819 0.024 1.212-0.087 0.393-0.112 0.728-0.318 1.005-0.619v0c0.101-0.08 0.21-0.189 0.327-0.327 0.108-0.137 0.186-0.311 0.234-0.522 0.048-0.211 0.039-0.464-0.026-0.76-0.074-0.295-0.255-0.634-0.541-1.015-0.287-0.391-0.692-0.831-1.216-1.32-0.519-0.485-1.215-1.033-2.09-1.646v0c-0.197-0.181-0.335-0.412-0.414-0.693-0.088-0.281-0.126-0.571-0.115-0.87 0.006-0.294 0.051-0.581 0.134-0.859 0.078-0.274 0.197-0.497 0.355-0.669v0c0.471-0.513 0.965-0.833 1.48-0.96 0.512-0.121 1.028-0.12 1.551 0.005 0.513 0.125 1.017 0.343 1.514 0.653 0.492 0.306 0.955 0.658 1.389 1.057v0c0.197 0.181 0.415 0.399 0.654 0.655 0.238 0.255 0.428 0.524 0.568 0.807 0.14 0.283 0.201 0.589 0.182 0.917-0.015 0.323-0.174 0.65-0.477 0.98v0c-0.233 0.195-0.393 0.294-0.478 0.298-0.095 0.004-0.15-0.069-0.166-0.22-0.016-0.151-0.024-0.345-0.025-0.582 0.004-0.242-0.022-0.502-0.076-0.779-0.045-0.278-0.154-0.555-0.328-0.832-0.168-0.272-0.427-0.51-0.777-0.714v0c-0.301-0.276-0.632-0.525-0.992-0.746-0.355-0.217-0.722-0.367-1.1-0.451-0.378-0.074-0.756-0.058-1.136 0.049-0.379 0.116-0.745 0.366-1.098 0.751v0c-0.181 0.197-0.215 0.412-0.1 0.644 0.11 0.237 0.313 0.491 0.608 0.763 0.296 0.272 0.641 0.57 1.034 0.895 0.393 0.324 0.787 0.668 1.182 1.03 0.395 0.362 0.75 0.743 1.066 1.141 0.311 0.394 0.528 0.812 0.651 1.253 0.118 0.436 0.105 0.891-0.041 1.367-0.141 0.471-0.474 0.952-0.998 1.443v0c-0.349 0.38-0.79 0.643-1.324 0.789-0.53 0.141-1.08 0.186-1.651 0.135-0.571-0.051-1.129-0.191-1.675-0.419-0.536-0.228-0.978-0.539-1.327-0.931v0c-0.144-0.16-0.318-0.396-0.521-0.71-0.203-0.323-0.372-0.669-0.507-1.038-0.139-0.364-0.214-0.728-0.224-1.092-0.006-0.36 0.111-0.671 0.351-0.933z" fill="black"></path><path d="M152.274 48.941l0.155 0.882-8.087 3.518c0.143 0.085 0.348 0.188 0.617 0.309 0.266 0.114 0.531 0.267 0.795 0.459 0.265 0.192 0.513 0.419 0.744 0.679 0.231 0.26 0.402 0.57 0.511 0.929v0c0.168 0.714 0.08 1.364-0.263 1.95-0.352 0.582-0.847 1.099-1.484 1.553-0.635 0.46-1.359 0.868-2.171 1.226-0.814 0.351-1.606 0.645-2.374 0.881-0.769 0.236-1.46 0.429-2.076 0.577-0.609 0.146-1.03 0.238-1.265 0.276v0l-0.181-0.958c0.152-0.052 0.394-0.132 0.726-0.239 0.334-0.101 0.724-0.221 1.172-0.361 0.456-0.136 0.931-0.289 1.425-0.459 0.488-0.168 0.948-0.323 1.381-0.465 0.435-0.136 0.818-0.268 1.149-0.396 0.34-0.124 0.573-0.219 0.699-0.283v0c0.482-0.145 0.906-0.393 1.273-0.747 0.374-0.355 0.616-0.74 0.729-1.154 0.11-0.42 0.047-0.852-0.191-1.295-0.24-0.449-0.75-0.84-1.53-1.173v0c-0.873-0.231-1.689-0.339-2.45-0.325-0.76 0.014-1.484 0.104-2.17 0.27-0.695 0.162-1.391 0.373-2.088 0.634-0.692 0.253-1.43 0.507-2.213 0.762v0l-0.189-1.04c0.201-0.013 0.556-0.092 1.066-0.24 0.509-0.147 1.117-0.335 1.824-0.564 0.703-0.221 1.486-0.477 2.35-0.767 0.866-0.284 1.759-0.592 2.679-0.923 0.916-0.323 1.836-0.654 2.761-0.993 0.927-0.333 1.807-0.658 2.64-0.973 0.84-0.318 1.61-0.611 2.311-0.881 0.701-0.27 1.276-0.492 1.725-0.669z" fill="black"></path><path d="M23.052 98.18v0c0.245 0.709 0.253 1.397 0.023 2.065-0.23 0.668-0.622 1.317-1.176 1.949-0.548 0.629-1.225 1.232-2.032 1.808-0.807 0.577-1.674 1.124-2.6 1.643-0.922 0.51-1.87 0.987-2.844 1.43-0.967 0.441-1.884 0.832-2.751 1.175-0.867 0.342-1.652 0.642-2.357 0.9-0.7 0.249-1.253 0.444-1.658 0.584v0l-0.237-0.684 5.671-3.183c0.062-0.128 0.045-0.363-0.052-0.705-0.097-0.342-0.242-0.731-0.436-1.168-0.193-0.436-0.413-0.906-0.657-1.41-0.251-0.501-0.471-0.982-0.658-1.441-0.194-0.457-0.35-0.878-0.469-1.263-0.125-0.382-0.161-0.681-0.108-0.898v0l-6.049 2.092-0.505-1.462c0.057-0.02 0.17-0.052 0.338-0.096 0.167-0.051 0.336-0.105 0.507-0.165 0.171-0.059 0.336-0.105 0.494-0.139 0.158-0.034 0.266-0.06 0.323-0.08v0c1.156-0.265 2.311-0.562 3.466-0.89 1.164-0.324 2.297-0.624 3.4-0.899 1.103-0.275 2.17-0.499 3.201-0.671 1.03-0.179 1.994-0.25 2.893-0.214 0.896 0.03 1.708 0.175 2.435 0.434 0.723 0.267 1.336 0.697 1.838 1.288zM21.893 99.102v0c-0.173-0.5-0.495-0.857-0.965-1.069-0.468-0.207-1.021-0.32-1.659-0.341-0.636-0.014-1.318 0.041-2.048 0.166-0.723 0.122-1.42 0.279-2.091 0.468-0.678 0.192-1.301 0.379-1.869 0.561-0.566 0.188-1 0.335-1.304 0.44v0c0.324 0.937 0.727 1.868 1.21 2.793 0.476 0.927 0.939 1.794 1.389 2.602v0c0.089-0.009 0.22-0.041 0.393-0.093 0.175-0.046 0.368-0.103 0.58-0.169 0.213-0.06 0.416-0.119 0.608-0.178 0.201-0.055 0.329-0.093 0.386-0.112v0c0.627-0.217 1.216-0.459 1.768-0.729 0.552-0.269 1.066-0.595 1.543-0.98 0.474-0.391 0.884-0.855 1.23-1.392 0.352-0.54 0.628-1.195 0.829-1.967z" fill="black"></path><path d="M24.439 130.93v0c0.778-0.849 1.578-1.252 2.401-1.207 0.832 0.044 1.628 0.415 2.388 1.111v0c0.296 0.271 0.569 0.535 0.817 0.79 0.248 0.255 0.464 0.52 0.646 0.796 0.183 0.276 0.334 0.583 0.453 0.919 0.124 0.331 0.209 0.723 0.258 1.176v0c0.041-0.044 0.132-0.134 0.273-0.268 0.132-0.134 0.274-0.285 0.428-0.452 0.149-0.163 0.287-0.314 0.414-0.452 0.131-0.143 0.224-0.244 0.278-0.304v0c0.234-0.285 0.546-0.64 0.935-1.065 0.389-0.425 0.755-0.889 1.098-1.392 0.343-0.513 0.596-1.062 0.76-1.647 0.169-0.591 0.126-1.193-0.129-1.808v0c-0.316-0.29-0.655-0.505-1.017-0.645-0.362-0.141-0.733-0.276-1.113-0.407-0.38-0.121-0.746-0.257-1.098-0.407-0.362-0.15-0.699-0.368-1.01-0.652v0c0.344-0.375 0.745-0.58 1.203-0.615 0.454-0.029 0.907 0.036 1.36 0.197 0.448 0.165 0.873 0.391 1.274 0.676 0.396 0.281 0.73 0.546 1.002 0.795v0c0.226 0.289 0.428 0.569 0.605 0.842 0.178 0.272 0.282 0.59 0.312 0.953 0.04 0.363-0.022 0.807-0.183 1.331-0.162 0.524-0.482 1.171-0.961 1.94-0.469 0.77-1.118 1.701-1.947 2.795-0.824 1.098-1.876 2.405-3.156 3.921v0c-0.147 0.22-0.362 0.331-0.647 0.334-0.289-0.002-0.613-0.08-0.97-0.234-0.357-0.146-0.733-0.34-1.128-0.584-0.399-0.239-0.783-0.499-1.15-0.782-0.373-0.287-0.722-0.566-1.047-0.836-0.325-0.27-0.593-0.503-0.805-0.697v0c-0.267-0.244-0.498-0.538-0.693-0.88-0.195-0.342-0.327-0.704-0.396-1.085-0.074-0.386-0.071-0.765 0.007-1.138 0.083-0.378 0.263-0.718 0.538-1.019zM28.783 132.034v0c-0.936-0.476-1.688-0.706-2.256-0.69-0.563 0.02-0.947 0.181-1.152 0.484-0.214 0.303-0.263 0.708-0.146 1.215 0.117 0.497 0.368 0.987 0.754 1.468 0.386 0.471 0.904 0.878 1.554 1.219 0.65 0.332 1.404 0.51 2.263 0.534v0c0.22-0.598 0.348-1.094 0.383-1.489 0.03-0.4-0.005-0.754-0.103-1.062-0.099-0.309-0.261-0.593-0.486-0.854-0.23-0.265-0.5-0.54-0.811-0.825z" fill="black"></path><path d="M55.168 151.582v0c0.085-0.414 0.2-1.055 0.345-1.923 0.153-0.873 0.327-1.852 0.521-2.936 0.195-1.091 0.406-2.243 0.632-3.458 0.227-1.214 0.44-2.362 0.64-3.445 0.202-1.089 0.382-2.066 0.54-2.931 0.16-0.872 0.282-1.514 0.367-1.929v0c0.025-0.18 0.091-0.492 0.196-0.934 0.1-0.445 0.203-0.919 0.312-1.425 0.108-0.505 0.215-0.979 0.32-1.421 0.1-0.445 0.172-0.755 0.217-0.93v0c0.279 0.071 0.512 0.189 0.697 0.354 0.188 0.158 0.317 0.382 0.39 0.67v0c-0.067 0.425-0.17 1.021-0.311 1.787-0.146 0.764-0.315 1.644-0.507 2.639-0.191 0.995-0.394 2.06-0.606 3.194-0.22 1.133-0.44 2.255-0.662 3.367v0c0.09-0.081 0.174-0.153 0.252-0.215 0.078-0.063 0.13-0.102 0.155-0.117v0c0.274-0.179 0.596-0.387 0.967-0.624 0.373-0.244 0.764-0.49 1.173-0.738 0.409-0.248 0.817-0.493 1.225-0.735 0.407-0.242 0.775-0.463 1.102-0.663 0.334-0.198 0.608-0.353 0.823-0.464 0.221-0.109 0.352-0.159 0.391-0.149v0l0.966 0.848c-0.405 0.208-0.872 0.452-1.4 0.732-0.536 0.285-1.064 0.593-1.583 0.923-0.528 0.335-1.041 0.695-1.541 1.08-0.505 0.383-0.939 0.78-1.299 1.193v0c-0.005 0.019-0.019 0.061-0.042 0.124-0.031 0.068-0.052 0.122-0.062 0.16v0c-0.005 0.019-0.01 0.067-0.015 0.142-0.01 0.067-0.018 0.11-0.022 0.129v0l4.78 9.637c-0.005 0.019-0.012 0.059-0.02 0.12-0.002 0.062-0.008 0.112-0.018 0.151v0c-0.096 0.376-0.367 0.612-0.812 0.705v0l-5.184-10.332c-0.015-0.024-0.031-0.067-0.051-0.126-0.013-0.059-0.031-0.122-0.055-0.191v0l-1.133 5.787c-0.025 0.097-0.069 0.283-0.132 0.558-0.058 0.282-0.125 0.583-0.199 0.903-0.07 0.328-0.138 0.635-0.204 0.922-0.06 0.289-0.102 0.482-0.127 0.58v0c-0.253-0.065-0.476-0.18-0.668-0.347-0.188-0.158-0.307-0.382-0.358-0.672z" fill="black"></path><path d="M91.045 151.864v0c-0.278-1.118-0.17-2.007 0.322-2.668 0.497-0.668 1.245-1.127 2.246-1.376v0c0.39-0.097 0.76-0.178 1.11-0.244 0.349-0.066 0.69-0.099 1.021-0.098 0.331 0.001 0.67 0.044 1.016 0.131 0.344 0.08 0.718 0.225 1.122 0.436v0c-0.015-0.059-0.039-0.184-0.072-0.376-0.039-0.184-0.085-0.386-0.141-0.607-0.053-0.215-0.102-0.413-0.147-0.595-0.047-0.189-0.08-0.322-0.099-0.4v0c-0.108-0.353-0.232-0.809-0.371-1.367-0.139-0.559-0.323-1.121-0.553-1.685-0.238-0.569-0.555-1.084-0.952-1.544-0.399-0.467-0.925-0.764-1.578-0.892v0c-0.416 0.103-0.783 0.267-1.1 0.49-0.317 0.224-0.635 0.458-0.954 0.703-0.311 0.25-0.626 0.48-0.946 0.69-0.325 0.219-0.693 0.379-1.102 0.481v0c-0.123-0.494-0.072-0.942 0.153-1.342 0.226-0.394 0.532-0.736 0.915-1.025 0.385-0.282 0.808-0.511 1.269-0.687 0.454-0.175 0.859-0.306 1.216-0.395v0c0.366-0.029 0.711-0.042 1.036-0.04 0.325 0.002 0.647 0.091 0.967 0.267 0.325 0.168 0.66 0.464 1.007 0.889 0.347 0.425 0.709 1.049 1.086 1.873 0.382 0.816 0.799 1.872 1.252 3.168 0.459 1.294 0.967 2.893 1.523 4.798v0c0.102 0.244 0.076 0.485-0.08 0.723-0.161 0.24-0.405 0.466-0.732 0.679-0.319 0.217-0.689 0.423-1.11 0.617-0.419 0.201-0.849 0.376-1.287 0.527-0.445 0.152-0.87 0.288-1.275 0.409-0.405 0.121-0.747 0.216-1.027 0.286v0c-0.351 0.087-0.723 0.117-1.116 0.091-0.393-0.027-0.767-0.117-1.123-0.27-0.362-0.152-0.677-0.363-0.944-0.635-0.269-0.278-0.453-0.616-0.552-1.012zM94.367 148.855v0c-0.914 0.517-1.521 1.016-1.823 1.498-0.295 0.48-0.373 0.89-0.233 1.228 0.134 0.346 0.445 0.611 0.932 0.793 0.479 0.178 1.025 0.239 1.639 0.183 0.606-0.061 1.231-0.268 1.875-0.62 0.636-0.358 1.201-0.888 1.696-1.591v0c-0.376-0.514-0.719-0.895-1.028-1.142-0.316-0.246-0.63-0.413-0.943-0.501-0.312-0.088-0.638-0.111-0.979-0.068-0.348 0.045-0.726 0.118-1.136 0.22z" fill="black"></path><path d="M124.504 136.132v0c0.273-0.247 0.576-0.422 0.908-0.524 0.323-0.103 0.654-0.196 0.995-0.279 0.34-0.073 0.672-0.166 0.995-0.278 0.314-0.113 0.607-0.293 0.88-0.54v0c0.313-0.283 0.588-0.633 0.827-1.048 0.234-0.42 0.4-0.86 0.499-1.32 0.108-0.459 0.118-0.916 0.031-1.371-0.087-0.455-0.288-0.856-0.602-1.203v0c-0.08-0.118-0.189-0.249-0.329-0.393-0.145-0.14-0.334-0.249-0.568-0.327-0.233-0.078-0.517-0.092-0.851-0.042-0.344 0.05-0.748 0.217-1.213 0.503-0.464 0.285-0.999 0.693-1.603 1.223-0.605 0.539-1.295 1.269-2.071 2.189v0c-0.223 0.202-0.5 0.336-0.83 0.4-0.321 0.065-0.649 0.077-0.984 0.037-0.335-0.04-0.656-0.12-0.962-0.239-0.298-0.119-0.536-0.278-0.717-0.476v0c-0.526-0.581-0.832-1.167-0.916-1.76-0.085-0.592-0.033-1.173 0.156-1.742 0.194-0.574 0.491-1.123 0.892-1.649 0.395-0.521 0.841-1.007 1.338-1.456v0c0.223-0.202 0.49-0.426 0.801-0.672 0.315-0.241 0.642-0.424 0.98-0.55 0.329-0.126 0.677-0.161 1.044-0.105 0.363 0.051 0.713 0.263 1.05 0.635v0c0.204 0.285 0.301 0.477 0.291 0.576 0 0.1-0.088 0.152-0.263 0.158-0.171 0.011-0.394 0-0.667-0.033-0.269-0.027-0.563-0.028-0.882-0.001-0.31 0.027-0.63 0.123-0.96 0.288-0.331 0.164-0.626 0.432-0.886 0.803v0c-0.347 0.315-0.663 0.66-0.947 1.034-0.284 0.384-0.491 0.784-0.621 1.2-0.124 0.411-0.143 0.839-0.056 1.285 0.083 0.44 0.322 0.879 0.718 1.316v0c0.202 0.223 0.441 0.282 0.717 0.177 0.28-0.1 0.589-0.303 0.926-0.609 0.333-0.301 0.703-0.66 1.112-1.076 0.409-0.407 0.837-0.813 1.284-1.218 0.452-0.409 0.917-0.768 1.397-1.076 0.48-0.318 0.974-0.521 1.481-0.61 0.507-0.089 1.019-0.028 1.534 0.182 0.521 0.215 1.028 0.641 1.524 1.276v0c0.396 0.437 0.645 0.961 0.748 1.574 0.107 0.617 0.103 1.245-0.014 1.884-0.117 0.639-0.332 1.25-0.645 1.832-0.318 0.587-0.713 1.053-1.186 1.4v0c-0.197 0.152-0.485 0.322-0.864 0.512-0.38 0.2-0.783 0.358-1.211 0.474-0.432 0.112-0.849 0.155-1.251 0.131-0.411-0.025-0.754-0.189-1.029-0.492z" fill="black"></path><path d="M128.196 101.351l0.475-0.887 9.637 2.586c-0.066-0.173-0.176-0.404-0.329-0.693-0.153-0.289-0.28-0.612-0.381-0.968-0.099-0.362-0.157-0.738-0.174-1.128-0.024-0.392 0.045-0.787 0.208-1.184v0c0.354-0.756 0.892-1.268 1.613-1.538 0.715-0.272 1.515-0.382 2.399-0.33 0.887 0.045 1.814 0.197 2.781 0.456 0.974 0.261 1.882 0.556 2.725 0.884 0.847 0.337 1.594 0.656 2.24 0.957 0.644 0.307 1.083 0.524 1.316 0.649v0l-0.509 0.981c-0.17-0.061-0.44-0.163-0.808-0.308-0.37-0.139-0.804-0.307-1.302-0.506-0.498-0.199-1.025-0.397-1.58-0.594-0.549-0.195-1.064-0.386-1.546-0.571-0.484-0.179-0.919-0.334-1.306-0.465-0.383-0.122-0.654-0.201-0.812-0.236v0c-0.53-0.21-1.081-0.289-1.654-0.236-0.579 0.05-1.064 0.222-1.453 0.517-0.393 0.287-0.643 0.71-0.75 1.269-0.102 0.568 0.072 1.277 0.523 2.127v0c0.613 0.815 1.26 1.483 1.943 2.003 0.68 0.526 1.382 0.961 2.106 1.304 0.73 0.345 1.493 0.649 2.289 0.91 0.796 0.262 1.629 0.558 2.499 0.889v0l-0.565 1.047c-0.188-0.131-0.558-0.309-1.111-0.534-0.55-0.231-1.22-0.498-2.008-0.8-0.782-0.3-1.658-0.625-2.627-0.977-0.967-0.358-1.971-0.715-3.011-1.071-1.044-0.364-2.092-0.723-3.146-1.077-1.054-0.354-2.064-0.684-3.028-0.991-0.962-0.314-1.849-0.597-2.662-0.851-0.81-0.26-1.475-0.471-1.992-0.634z" fill="black"></path><path d="M0.826 78.775c0-4.197 3.402-7.599 7.599-7.599 4.197 0 7.599 3.402 7.599 7.599 0 4.197-3.402 7.599-7.599 7.599-4.197 0-7.599-3.402-7.599-7.599z" fill="black"></path><path d="M138.476 78.775c0-4.197 3.402-7.599 7.599-7.599 4.197 0 7.599 3.402 7.599 7.599 0 4.197-3.402 7.599-7.599 7.599-4.197 0-7.599-3.402-7.599-7.599z" fill="black"></path></g><g id="SvgjsG2881"></g></svg></g><defs><mask></mask></defs></svg><rect width="154.5" height="154.5" fill="black" stroke="none" visibility="hidden"></rect></g></mask><linearGradient x1="0.054" x2="0.941" y1="0.5" y2="0.5" id="9445de41-07c3-4f46-8925-3ae691b59363"><stop stop-color="#864d25" offset="0"></stop><stop stop-color="#f1c4b3" offset="0.498"></stop><stop stop-color="#864d25" offset="1"></stop></linearGradient><rect width="154.5" height="154.5" fill="url(#9445de41-07c3-4f46-8925-3ae691b59363)" mask="url(#85bf612a-2db9-421a-af34-76c82d9f94f4)" data-fill-palette-color="primary"></rect><mask id="5c3d7846-223f-4269-a83b-b236d6948ec2"><g id="SvgjsG2897"><svg viewBox="0 0 154.5 154.5" height="154.5" width="154.5"><g><svg viewBox="0 0 154.5 154.5" height="154.5" width="154.5"><g transform="matrix(1,0,0,1,61.46663066967624,50.2438949702109)"><svg viewBox="0 0 31.56673866064752 54.012210059578194" height="54.012210059578194" width="31.56673866064752"><g><svg viewBox="0 0 31.56673866064752 54.012210059578194" height="54.012210059578194" width="31.56673866064752"><g><svg viewBox="0 0 31.56673866064752 54.012210059578194" height="54.012210059578194" width="31.56673866064752"><g id="SvgjsG2896"><svg viewBox="0 0 31.56673866064752 54.012210059578194" height="54.012210059578194" width="31.56673866064752" id="SvgjsSvg2895"><g><svg viewBox="0 0 31.56673866064752 54.012210059578194" height="54.012210059578194" width="31.56673866064752"><g transform="matrix(1,0,0,1,0,0)"><svg width="31.56673866064752" viewBox="1.03 -30.42 17.23 29.490000000000002" height="54.012210059578194" data-palette-color="url(#9445de41-07c3-4f46-8925-3ae691b59363)"></svg></g></svg></g></svg></g></svg></g></svg></g></svg></g><g id="SvgjsG2894"><path d="M2.769 53.121v0c0.211-0.629 0.575-1.114 1.092-1.456 0.52-0.348 1.142-0.592 1.867-0.73 0.733-0.142 1.537-0.201 2.412-0.176 0.873 0.032 1.773 0.118 2.7 0.259 0.921 0.14 1.84 0.317 2.757 0.534 0.919 0.21 1.774 0.43 2.565 0.66 0.792 0.23 1.504 0.445 2.137 0.643 0.624 0.203 1.114 0.363 1.47 0.483v0l-0.204 0.609-5.686-0.838c-0.112 0.061-0.228 0.238-0.347 0.53-0.111 0.288-0.217 0.637-0.32 1.048-0.103 0.411-0.2 0.858-0.292 1.343-0.098 0.483-0.205 0.938-0.321 1.366-0.113 0.421-0.23 0.802-0.352 1.143-0.126 0.332-0.265 0.558-0.417 0.676v0l5.362 1.8-0.435 1.295c-0.051-0.017-0.145-0.052-0.282-0.105-0.142-0.062-0.289-0.118-0.442-0.17-0.152-0.051-0.293-0.105-0.422-0.163-0.133-0.066-0.225-0.107-0.276-0.124v0c-0.95-0.432-1.917-0.845-2.901-1.239-0.988-0.402-1.945-0.805-2.87-1.207-0.918-0.4-1.785-0.818-2.599-1.254-0.815-0.436-1.529-0.906-2.145-1.409-0.613-0.51-1.099-1.051-1.458-1.624-0.365-0.575-0.563-1.206-0.593-1.894zM4.068 53.101v0c-0.147 0.438-0.112 0.86 0.105 1.265 0.211 0.403 0.536 0.781 0.977 1.133 0.44 0.353 0.947 0.682 1.523 0.988 0.573 0.313 1.147 0.583 1.72 0.811 0.574 0.228 1.106 0.431 1.597 0.61 0.499 0.175 0.886 0.308 1.159 0.4v0c0.279-0.832 0.5-1.701 0.663-2.607 0.163-0.906 0.306-1.763 0.428-2.57v0c-0.063-0.043-0.17-0.092-0.321-0.15-0.15-0.058-0.319-0.125-0.505-0.201-0.182-0.068-0.358-0.134-0.527-0.198-0.161-0.068-0.267-0.111-0.317-0.128v0c-0.559-0.188-1.103-0.335-1.632-0.442-0.527-0.113-1.062-0.162-1.604-0.146-0.542 0.016-1.082 0.117-1.618 0.304-0.536 0.187-1.086 0.498-1.648 0.931z" fill="white"></path><path d="M30.949 33.542v0c-0.696-0.752-0.995-1.488-0.897-2.21 0.099-0.721 0.482-1.392 1.15-2.01v0c0.26-0.241 0.511-0.464 0.751-0.668 0.245-0.199 0.495-0.367 0.752-0.505 0.257-0.147 0.536-0.259 0.837-0.338 0.302-0.088 0.655-0.136 1.058-0.144v0c-0.036-0.039-0.109-0.123-0.218-0.25-0.109-0.137-0.229-0.277-0.361-0.419-0.132-0.142-0.257-0.278-0.375-0.406-0.114-0.123-0.196-0.211-0.246-0.265v0c-0.233-0.222-0.523-0.52-0.869-0.893-0.346-0.373-0.731-0.729-1.154-1.068-0.423-0.338-0.887-0.603-1.391-0.793-0.505-0.19-1.038-0.194-1.599-0.011v0c-0.275 0.255-0.49 0.536-0.644 0.843-0.149 0.312-0.294 0.629-0.434 0.95-0.136 0.327-0.283 0.641-0.442 0.943-0.158 0.302-0.375 0.581-0.65 0.836v0c-0.3-0.324-0.45-0.688-0.449-1.091 0.001-0.403 0.092-0.797 0.273-1.184 0.181-0.387 0.41-0.745 0.688-1.076 0.278-0.331 0.535-0.605 0.771-0.824v0c0.272-0.179 0.532-0.338 0.778-0.475 0.256-0.137 0.546-0.209 0.869-0.215 0.323-0.007 0.705 0.081 1.149 0.264 0.453 0.183 1.002 0.51 1.647 0.98 0.65 0.475 1.427 1.116 2.33 1.923 0.903 0.807 1.975 1.827 3.217 3.059v0c0.184 0.149 0.264 0.349 0.241 0.599-0.019 0.255-0.108 0.534-0.267 0.836-0.158 0.302-0.358 0.619-0.598 0.952-0.24 0.332-0.496 0.652-0.769 0.958-0.282 0.307-0.554 0.595-0.815 0.865-0.266 0.265-0.49 0.481-0.672 0.65v0c-0.236 0.218-0.513 0.402-0.831 0.551-0.314 0.144-0.639 0.236-0.978 0.276-0.347 0.039-0.683 0.007-1.005-0.096-0.323-0.102-0.605-0.284-0.847-0.544zM32.229 29.794v0c-0.49 0.792-0.747 1.436-0.77 1.933-0.029 0.501 0.084 0.854 0.336 1.058 0.253 0.204 0.606 0.274 1.059 0.211 0.453-0.063 0.903-0.248 1.35-0.552 0.448-0.305 0.841-0.733 1.18-1.285 0.348-0.551 0.56-1.204 0.636-1.959v0c-0.508-0.233-0.936-0.379-1.284-0.44-0.344-0.056-0.654-0.051-0.932 0.014-0.287 0.065-0.552 0.187-0.796 0.368-0.244 0.18-0.503 0.398-0.779 0.652z" fill="white"></path><path d="M58.64 18.335v0c-0.106-0.36-0.288-0.908-0.547-1.644-0.252-0.738-0.534-1.571-0.849-2.5-0.306-0.924-0.631-1.906-0.973-2.945-0.343-1.039-0.664-2.022-0.964-2.947-0.3-0.926-0.573-1.762-0.82-2.507-0.245-0.739-0.424-1.288-0.536-1.647v0c-0.059-0.151-0.142-0.42-0.249-0.807-0.106-0.388-0.226-0.799-0.358-1.236-0.133-0.436-0.252-0.848-0.359-1.236-0.106-0.388-0.18-0.659-0.219-0.815v0c0.24-0.062 0.467-0.068 0.679-0.018 0.218 0.041 0.414 0.16 0.59 0.357v0c0.132 0.353 0.303 0.859 0.514 1.517 0.217 0.657 0.462 1.41 0.735 2.259 0.273 0.85 0.567 1.763 0.88 2.741 0.318 0.97 0.627 1.931 0.926 2.884v0c0.03-0.098 0.062-0.189 0.096-0.273 0.034-0.085 0.055-0.135 0.065-0.152v0c0.141-0.258 0.306-0.559 0.494-0.904 0.188-0.346 0.387-0.701 0.598-1.066 0.211-0.365 0.422-0.727 0.634-1.086 0.212-0.359 0.405-0.685 0.579-0.979 0.174-0.293 0.32-0.532 0.439-0.714 0.121-0.176 0.197-0.268 0.229-0.277v0l1.12 0.242c-0.232 0.336-0.492 0.724-0.779 1.165-0.295 0.442-0.574 0.904-0.837 1.386-0.263 0.482-0.509 0.981-0.737 1.496-0.229 0.508-0.394 0.997-0.495 1.466v0c0.005 0.019 0.012 0.059 0.02 0.119 0.002 0.062 0.008 0.112 0.018 0.151v0c0.003 0.013 0.02 0.05 0.05 0.112 0.021 0.057 0.035 0.095 0.039 0.114v0l7.788 5.449c0.003 0.013 0.018 0.044 0.045 0.092 0.02 0.05 0.035 0.095 0.044 0.134v0c0.083 0.324-0.025 0.618-0.323 0.882v0l-8.419-5.806c-0.018-0.016-0.046-0.044-0.083-0.082-0.036-0.032-0.08-0.069-0.133-0.112v0l1.583 4.957c0.023 0.091 0.069 0.255 0.137 0.494 0.068 0.238 0.145 0.499 0.232 0.78 0.08 0.284 0.155 0.551 0.227 0.803 0.078 0.25 0.128 0.417 0.149 0.501v0c-0.227 0.058-0.447 0.063-0.66 0.014-0.218-0.041-0.408-0.162-0.57-0.362z" fill="white"></path><path d="M89.373 15.031v0c0.249-0.994 0.703-1.647 1.361-1.958 0.658-0.312 1.429-0.357 2.313-0.136v0c0.344 0.086 0.668 0.174 0.969 0.264 0.3 0.096 0.578 0.214 0.833 0.354 0.263 0.135 0.51 0.307 0.741 0.517 0.239 0.205 0.472 0.474 0.699 0.807v0c0.013-0.052 0.043-0.158 0.09-0.319 0.055-0.166 0.107-0.343 0.154-0.531 0.047-0.188 0.092-0.367 0.134-0.536 0.041-0.162 0.07-0.279 0.088-0.351v0c0.059-0.317 0.15-0.722 0.274-1.216 0.124-0.494 0.212-1.01 0.264-1.55 0.052-0.539 0.02-1.072-0.097-1.598-0.117-0.526-0.405-0.975-0.864-1.346v0c-0.364-0.091-0.716-0.117-1.057-0.078-0.343 0.045-0.687 0.097-1.034 0.155-0.348 0.065-0.691 0.113-1.031 0.146-0.34 0.032-0.691 0.003-1.055-0.089v0c0.107-0.429 0.33-0.753 0.669-0.972 0.338-0.219 0.718-0.359 1.14-0.418 0.422-0.06 0.848-0.064 1.277-0.012 0.429 0.052 0.799 0.117 1.111 0.196v0c0.299 0.13 0.573 0.261 0.824 0.393 0.255 0.14 0.473 0.343 0.655 0.609 0.182 0.267 0.317 0.635 0.406 1.107 0.094 0.479 0.12 1.118 0.079 1.915-0.043 0.804-0.155 1.805-0.338 3.002-0.183 1.197-0.451 2.653-0.804 4.366v0c-0.025 0.236-0.148 0.412-0.371 0.529-0.224 0.123-0.506 0.201-0.845 0.234-0.34 0.032-0.714 0.039-1.124 0.018-0.409-0.02-0.817-0.06-1.223-0.12-0.411-0.068-0.801-0.139-1.169-0.21-0.367-0.078-0.671-0.147-0.912-0.208v0c-0.312-0.078-0.617-0.21-0.916-0.395-0.292-0.184-0.547-0.406-0.764-0.668-0.222-0.27-0.379-0.568-0.47-0.895-0.091-0.327-0.093-0.662-0.007-1.006zM93.212 14.056v0c-0.931 0.022-1.611 0.159-2.04 0.411-0.436 0.25-0.67 0.537-0.703 0.859-0.033 0.323 0.101 0.657 0.402 1.002 0.3 0.345 0.701 0.621 1.201 0.829 0.5 0.208 1.074 0.304 1.72 0.286 0.651-0.009 1.314-0.188 1.989-0.537v0c-0.083-0.552-0.194-0.991-0.333-1.316-0.141-0.318-0.315-0.576-0.521-0.773-0.211-0.205-0.459-0.36-0.743-0.466-0.284-0.106-0.608-0.204-0.972-0.295z" fill="white"></path><path d="M118.529 29.141v0c0.237 0.217 0.416 0.468 0.537 0.752 0.121 0.275 0.228 0.559 0.321 0.854 0.093 0.295 0.203 0.577 0.328 0.846 0.13 0.274 0.314 0.52 0.551 0.738v0c0.276 0.254 0.608 0.467 0.994 0.64 0.387 0.173 0.785 0.284 1.195 0.332 0.415 0.053 0.819 0.024 1.212-0.087 0.393-0.112 0.728-0.318 1.005-0.619v0c0.101-0.08 0.21-0.189 0.327-0.327 0.108-0.137 0.186-0.311 0.234-0.522 0.048-0.211 0.039-0.464-0.026-0.76-0.074-0.295-0.255-0.634-0.541-1.015-0.287-0.391-0.692-0.831-1.216-1.32-0.519-0.485-1.215-1.033-2.09-1.646v0c-0.197-0.181-0.335-0.412-0.414-0.693-0.088-0.281-0.126-0.571-0.115-0.87 0.006-0.294 0.051-0.581 0.134-0.859 0.078-0.274 0.197-0.497 0.355-0.669v0c0.471-0.513 0.965-0.833 1.48-0.96 0.512-0.121 1.028-0.12 1.551 0.005 0.513 0.125 1.017 0.343 1.514 0.653 0.492 0.306 0.955 0.658 1.389 1.057v0c0.197 0.181 0.415 0.399 0.654 0.655 0.238 0.255 0.428 0.524 0.568 0.807 0.14 0.283 0.201 0.589 0.182 0.917-0.015 0.323-0.174 0.65-0.477 0.98v0c-0.233 0.195-0.393 0.294-0.478 0.298-0.095 0.004-0.15-0.069-0.166-0.22-0.016-0.151-0.024-0.345-0.025-0.582 0.004-0.242-0.022-0.502-0.076-0.779-0.045-0.278-0.154-0.555-0.328-0.832-0.168-0.272-0.427-0.51-0.777-0.714v0c-0.301-0.276-0.632-0.525-0.992-0.746-0.355-0.217-0.722-0.367-1.1-0.451-0.378-0.074-0.756-0.058-1.136 0.049-0.379 0.116-0.745 0.366-1.098 0.751v0c-0.181 0.197-0.215 0.412-0.1 0.644 0.11 0.237 0.313 0.491 0.608 0.763 0.296 0.272 0.641 0.57 1.034 0.895 0.393 0.324 0.787 0.668 1.182 1.03 0.395 0.362 0.75 0.743 1.066 1.141 0.311 0.394 0.528 0.812 0.651 1.253 0.118 0.436 0.105 0.891-0.041 1.367-0.141 0.471-0.474 0.952-0.998 1.443v0c-0.349 0.38-0.79 0.643-1.324 0.789-0.53 0.141-1.08 0.186-1.651 0.135-0.571-0.051-1.129-0.191-1.675-0.419-0.536-0.228-0.978-0.539-1.327-0.931v0c-0.144-0.16-0.318-0.396-0.521-0.71-0.203-0.323-0.372-0.669-0.507-1.038-0.139-0.364-0.214-0.728-0.224-1.092-0.006-0.36 0.111-0.671 0.351-0.933z" fill="white"></path><path d="M152.274 48.941l0.155 0.882-8.087 3.518c0.143 0.085 0.348 0.188 0.617 0.309 0.266 0.114 0.531 0.267 0.795 0.459 0.265 0.192 0.513 0.419 0.744 0.679 0.231 0.26 0.402 0.57 0.511 0.929v0c0.168 0.714 0.08 1.364-0.263 1.95-0.352 0.582-0.847 1.099-1.484 1.553-0.635 0.46-1.359 0.868-2.171 1.226-0.814 0.351-1.606 0.645-2.374 0.881-0.769 0.236-1.46 0.429-2.076 0.577-0.609 0.146-1.03 0.238-1.265 0.276v0l-0.181-0.958c0.152-0.052 0.394-0.132 0.726-0.239 0.334-0.101 0.724-0.221 1.172-0.361 0.456-0.136 0.931-0.289 1.425-0.459 0.488-0.168 0.948-0.323 1.381-0.465 0.435-0.136 0.818-0.268 1.149-0.396 0.34-0.124 0.573-0.219 0.699-0.283v0c0.482-0.145 0.906-0.393 1.273-0.747 0.374-0.355 0.616-0.74 0.729-1.154 0.11-0.42 0.047-0.852-0.191-1.295-0.24-0.449-0.75-0.84-1.53-1.173v0c-0.873-0.231-1.689-0.339-2.45-0.325-0.76 0.014-1.484 0.104-2.17 0.27-0.695 0.162-1.391 0.373-2.088 0.634-0.692 0.253-1.43 0.507-2.213 0.762v0l-0.189-1.04c0.201-0.013 0.556-0.092 1.066-0.24 0.509-0.147 1.117-0.335 1.824-0.564 0.703-0.221 1.486-0.477 2.35-0.767 0.866-0.284 1.759-0.592 2.679-0.923 0.916-0.323 1.836-0.654 2.761-0.993 0.927-0.333 1.807-0.658 2.64-0.973 0.84-0.318 1.61-0.611 2.311-0.881 0.701-0.27 1.276-0.492 1.725-0.669z" fill="white"></path><path d="M23.052 98.18v0c0.245 0.709 0.253 1.397 0.023 2.065-0.23 0.668-0.622 1.317-1.176 1.949-0.548 0.629-1.225 1.232-2.032 1.808-0.807 0.577-1.674 1.124-2.6 1.643-0.922 0.51-1.87 0.987-2.844 1.43-0.967 0.441-1.884 0.832-2.751 1.175-0.867 0.342-1.652 0.642-2.357 0.9-0.7 0.249-1.253 0.444-1.658 0.584v0l-0.237-0.684 5.671-3.183c0.062-0.128 0.045-0.363-0.052-0.705-0.097-0.342-0.242-0.731-0.436-1.168-0.193-0.436-0.413-0.906-0.657-1.41-0.251-0.501-0.471-0.982-0.658-1.441-0.194-0.457-0.35-0.878-0.469-1.263-0.125-0.382-0.161-0.681-0.108-0.898v0l-6.049 2.092-0.505-1.462c0.057-0.02 0.17-0.052 0.338-0.096 0.167-0.051 0.336-0.105 0.507-0.165 0.171-0.059 0.336-0.105 0.494-0.139 0.158-0.034 0.266-0.06 0.323-0.08v0c1.156-0.265 2.311-0.562 3.466-0.89 1.164-0.324 2.297-0.624 3.4-0.899 1.103-0.275 2.17-0.499 3.201-0.671 1.03-0.179 1.994-0.25 2.893-0.214 0.896 0.03 1.708 0.175 2.435 0.434 0.723 0.267 1.336 0.697 1.838 1.288zM21.893 99.102v0c-0.173-0.5-0.495-0.857-0.965-1.069-0.468-0.207-1.021-0.32-1.659-0.341-0.636-0.014-1.318 0.041-2.048 0.166-0.723 0.122-1.42 0.279-2.091 0.468-0.678 0.192-1.301 0.379-1.869 0.561-0.566 0.188-1 0.335-1.304 0.44v0c0.324 0.937 0.727 1.868 1.21 2.793 0.476 0.927 0.939 1.794 1.389 2.602v0c0.089-0.009 0.22-0.041 0.393-0.093 0.175-0.046 0.368-0.103 0.58-0.169 0.213-0.06 0.416-0.119 0.608-0.178 0.201-0.055 0.329-0.093 0.386-0.112v0c0.627-0.217 1.216-0.459 1.768-0.729 0.552-0.269 1.066-0.595 1.543-0.98 0.474-0.391 0.884-0.855 1.23-1.392 0.352-0.54 0.628-1.195 0.829-1.967z" fill="white"></path><path d="M24.439 130.93v0c0.778-0.849 1.578-1.252 2.401-1.207 0.832 0.044 1.628 0.415 2.388 1.111v0c0.296 0.271 0.569 0.535 0.817 0.79 0.248 0.255 0.464 0.52 0.646 0.796 0.183 0.276 0.334 0.583 0.453 0.919 0.124 0.331 0.209 0.723 0.258 1.176v0c0.041-0.044 0.132-0.134 0.273-0.268 0.132-0.134 0.274-0.285 0.428-0.452 0.149-0.163 0.287-0.314 0.414-0.452 0.131-0.143 0.224-0.244 0.278-0.304v0c0.234-0.285 0.546-0.64 0.935-1.065 0.389-0.425 0.755-0.889 1.098-1.392 0.343-0.513 0.596-1.062 0.76-1.647 0.169-0.591 0.126-1.193-0.129-1.808v0c-0.316-0.29-0.655-0.505-1.017-0.645-0.362-0.141-0.733-0.276-1.113-0.407-0.38-0.121-0.746-0.257-1.098-0.407-0.362-0.15-0.699-0.368-1.01-0.652v0c0.344-0.375 0.745-0.58 1.203-0.615 0.454-0.029 0.907 0.036 1.36 0.197 0.448 0.165 0.873 0.391 1.274 0.676 0.396 0.281 0.73 0.546 1.002 0.795v0c0.226 0.289 0.428 0.569 0.605 0.842 0.178 0.272 0.282 0.59 0.312 0.953 0.04 0.363-0.022 0.807-0.183 1.331-0.162 0.524-0.482 1.171-0.961 1.94-0.469 0.77-1.118 1.701-1.947 2.795-0.824 1.098-1.876 2.405-3.156 3.921v0c-0.147 0.22-0.362 0.331-0.647 0.334-0.289-0.002-0.613-0.08-0.97-0.234-0.357-0.146-0.733-0.34-1.128-0.584-0.399-0.239-0.783-0.499-1.15-0.782-0.373-0.287-0.722-0.566-1.047-0.836-0.325-0.27-0.593-0.503-0.805-0.697v0c-0.267-0.244-0.498-0.538-0.693-0.88-0.195-0.342-0.327-0.704-0.396-1.085-0.074-0.386-0.071-0.765 0.007-1.138 0.083-0.378 0.263-0.718 0.538-1.019zM28.783 132.034v0c-0.936-0.476-1.688-0.706-2.256-0.69-0.563 0.02-0.947 0.181-1.152 0.484-0.214 0.303-0.263 0.708-0.146 1.215 0.117 0.497 0.368 0.987 0.754 1.468 0.386 0.471 0.904 0.878 1.554 1.219 0.65 0.332 1.404 0.51 2.263 0.534v0c0.22-0.598 0.348-1.094 0.383-1.489 0.03-0.4-0.005-0.754-0.103-1.062-0.099-0.309-0.261-0.593-0.486-0.854-0.23-0.265-0.5-0.54-0.811-0.825z" fill="white"></path><path d="M55.168 151.582v0c0.085-0.414 0.2-1.055 0.345-1.923 0.153-0.873 0.327-1.852 0.521-2.936 0.195-1.091 0.406-2.243 0.632-3.458 0.227-1.214 0.44-2.362 0.64-3.445 0.202-1.089 0.382-2.066 0.54-2.931 0.16-0.872 0.282-1.514 0.367-1.929v0c0.025-0.18 0.091-0.492 0.196-0.934 0.1-0.445 0.203-0.919 0.312-1.425 0.108-0.505 0.215-0.979 0.32-1.421 0.1-0.445 0.172-0.755 0.217-0.93v0c0.279 0.071 0.512 0.189 0.697 0.354 0.188 0.158 0.317 0.382 0.39 0.67v0c-0.067 0.425-0.17 1.021-0.311 1.787-0.146 0.764-0.315 1.644-0.507 2.639-0.191 0.995-0.394 2.06-0.606 3.194-0.22 1.133-0.44 2.255-0.662 3.367v0c0.09-0.081 0.174-0.153 0.252-0.215 0.078-0.063 0.13-0.102 0.155-0.117v0c0.274-0.179 0.596-0.387 0.967-0.624 0.373-0.244 0.764-0.49 1.173-0.738 0.409-0.248 0.817-0.493 1.225-0.735 0.407-0.242 0.775-0.463 1.102-0.663 0.334-0.198 0.608-0.353 0.823-0.464 0.221-0.109 0.352-0.159 0.391-0.149v0l0.966 0.848c-0.405 0.208-0.872 0.452-1.4 0.732-0.536 0.285-1.064 0.593-1.583 0.923-0.528 0.335-1.041 0.695-1.541 1.08-0.505 0.383-0.939 0.78-1.299 1.193v0c-0.005 0.019-0.019 0.061-0.042 0.124-0.031 0.068-0.052 0.122-0.062 0.16v0c-0.005 0.019-0.01 0.067-0.015 0.142-0.01 0.067-0.018 0.11-0.022 0.129v0l4.78 9.637c-0.005 0.019-0.012 0.059-0.02 0.12-0.002 0.062-0.008 0.112-0.018 0.151v0c-0.096 0.376-0.367 0.612-0.812 0.705v0l-5.184-10.332c-0.015-0.024-0.031-0.067-0.051-0.126-0.013-0.059-0.031-0.122-0.055-0.191v0l-1.133 5.787c-0.025 0.097-0.069 0.283-0.132 0.558-0.058 0.282-0.125 0.583-0.199 0.903-0.07 0.328-0.138 0.635-0.204 0.922-0.06 0.289-0.102 0.482-0.127 0.58v0c-0.253-0.065-0.476-0.18-0.668-0.347-0.188-0.158-0.307-0.382-0.358-0.672z" fill="white"></path><path d="M91.045 151.864v0c-0.278-1.118-0.17-2.007 0.322-2.668 0.497-0.668 1.245-1.127 2.246-1.376v0c0.39-0.097 0.76-0.178 1.11-0.244 0.349-0.066 0.69-0.099 1.021-0.098 0.331 0.001 0.67 0.044 1.016 0.131 0.344 0.08 0.718 0.225 1.122 0.436v0c-0.015-0.059-0.039-0.184-0.072-0.376-0.039-0.184-0.085-0.386-0.141-0.607-0.053-0.215-0.102-0.413-0.147-0.595-0.047-0.189-0.08-0.322-0.099-0.4v0c-0.108-0.353-0.232-0.809-0.371-1.367-0.139-0.559-0.323-1.121-0.553-1.685-0.238-0.569-0.555-1.084-0.952-1.544-0.399-0.467-0.925-0.764-1.578-0.892v0c-0.416 0.103-0.783 0.267-1.1 0.49-0.317 0.224-0.635 0.458-0.954 0.703-0.311 0.25-0.626 0.48-0.946 0.69-0.325 0.219-0.693 0.379-1.102 0.481v0c-0.123-0.494-0.072-0.942 0.153-1.342 0.226-0.394 0.532-0.736 0.915-1.025 0.385-0.282 0.808-0.511 1.269-0.687 0.454-0.175 0.859-0.306 1.216-0.395v0c0.366-0.029 0.711-0.042 1.036-0.04 0.325 0.002 0.647 0.091 0.967 0.267 0.325 0.168 0.66 0.464 1.007 0.889 0.347 0.425 0.709 1.049 1.086 1.873 0.382 0.816 0.799 1.872 1.252 3.168 0.459 1.294 0.967 2.893 1.523 4.798v0c0.102 0.244 0.076 0.485-0.08 0.723-0.161 0.24-0.405 0.466-0.732 0.679-0.319 0.217-0.689 0.423-1.11 0.617-0.419 0.201-0.849 0.376-1.287 0.527-0.445 0.152-0.87 0.288-1.275 0.409-0.405 0.121-0.747 0.216-1.027 0.286v0c-0.351 0.087-0.723 0.117-1.116 0.091-0.393-0.027-0.767-0.117-1.123-0.27-0.362-0.152-0.677-0.363-0.944-0.635-0.269-0.278-0.453-0.616-0.552-1.012zM94.367 148.855v0c-0.914 0.517-1.521 1.016-1.823 1.498-0.295 0.48-0.373 0.89-0.233 1.228 0.134 0.346 0.445 0.611 0.932 0.793 0.479 0.178 1.025 0.239 1.639 0.183 0.606-0.061 1.231-0.268 1.875-0.62 0.636-0.358 1.201-0.888 1.696-1.591v0c-0.376-0.514-0.719-0.895-1.028-1.142-0.316-0.246-0.63-0.413-0.943-0.501-0.312-0.088-0.638-0.111-0.979-0.068-0.348 0.045-0.726 0.118-1.136 0.22z" fill="white"></path><path d="M124.504 136.132v0c0.273-0.247 0.576-0.422 0.908-0.524 0.323-0.103 0.654-0.196 0.995-0.279 0.34-0.073 0.672-0.166 0.995-0.278 0.314-0.113 0.607-0.293 0.88-0.54v0c0.313-0.283 0.588-0.633 0.827-1.048 0.234-0.42 0.4-0.86 0.499-1.32 0.108-0.459 0.118-0.916 0.031-1.371-0.087-0.455-0.288-0.856-0.602-1.203v0c-0.08-0.118-0.189-0.249-0.329-0.393-0.145-0.14-0.334-0.249-0.568-0.327-0.233-0.078-0.517-0.092-0.851-0.042-0.344 0.05-0.748 0.217-1.213 0.503-0.464 0.285-0.999 0.693-1.603 1.223-0.605 0.539-1.295 1.269-2.071 2.189v0c-0.223 0.202-0.5 0.336-0.83 0.4-0.321 0.065-0.649 0.077-0.984 0.037-0.335-0.04-0.656-0.12-0.962-0.239-0.298-0.119-0.536-0.278-0.717-0.476v0c-0.526-0.581-0.832-1.167-0.916-1.76-0.085-0.592-0.033-1.173 0.156-1.742 0.194-0.574 0.491-1.123 0.892-1.649 0.395-0.521 0.841-1.007 1.338-1.456v0c0.223-0.202 0.49-0.426 0.801-0.672 0.315-0.241 0.642-0.424 0.98-0.55 0.329-0.126 0.677-0.161 1.044-0.105 0.363 0.051 0.713 0.263 1.05 0.635v0c0.204 0.285 0.301 0.477 0.291 0.576 0 0.1-0.088 0.152-0.263 0.158-0.171 0.011-0.394 0-0.667-0.033-0.269-0.027-0.563-0.028-0.882-0.001-0.31 0.027-0.63 0.123-0.96 0.288-0.331 0.164-0.626 0.432-0.886 0.803v0c-0.347 0.315-0.663 0.66-0.947 1.034-0.284 0.384-0.491 0.784-0.621 1.2-0.124 0.411-0.143 0.839-0.056 1.285 0.083 0.44 0.322 0.879 0.718 1.316v0c0.202 0.223 0.441 0.282 0.717 0.177 0.28-0.1 0.589-0.303 0.926-0.609 0.333-0.301 0.703-0.66 1.112-1.076 0.409-0.407 0.837-0.813 1.284-1.218 0.452-0.409 0.917-0.768 1.397-1.076 0.48-0.318 0.974-0.521 1.481-0.61 0.507-0.089 1.019-0.028 1.534 0.182 0.521 0.215 1.028 0.641 1.524 1.276v0c0.396 0.437 0.645 0.961 0.748 1.574 0.107 0.617 0.103 1.245-0.014 1.884-0.117 0.639-0.332 1.25-0.645 1.832-0.318 0.587-0.713 1.053-1.186 1.4v0c-0.197 0.152-0.485 0.322-0.864 0.512-0.38 0.2-0.783 0.358-1.211 0.474-0.432 0.112-0.849 0.155-1.251 0.131-0.411-0.025-0.754-0.189-1.029-0.492z" fill="white"></path><path d="M128.196 101.351l0.475-0.887 9.637 2.586c-0.066-0.173-0.176-0.404-0.329-0.693-0.153-0.289-0.28-0.612-0.381-0.968-0.099-0.362-0.157-0.738-0.174-1.128-0.024-0.392 0.045-0.787 0.208-1.184v0c0.354-0.756 0.892-1.268 1.613-1.538 0.715-0.272 1.515-0.382 2.399-0.33 0.887 0.045 1.814 0.197 2.781 0.456 0.974 0.261 1.882 0.556 2.725 0.884 0.847 0.337 1.594 0.656 2.24 0.957 0.644 0.307 1.083 0.524 1.316 0.649v0l-0.509 0.981c-0.17-0.061-0.44-0.163-0.808-0.308-0.37-0.139-0.804-0.307-1.302-0.506-0.498-0.199-1.025-0.397-1.58-0.594-0.549-0.195-1.064-0.386-1.546-0.571-0.484-0.179-0.919-0.334-1.306-0.465-0.383-0.122-0.654-0.201-0.812-0.236v0c-0.53-0.21-1.081-0.289-1.654-0.236-0.579 0.05-1.064 0.222-1.453 0.517-0.393 0.287-0.643 0.71-0.75 1.269-0.102 0.568 0.072 1.277 0.523 2.127v0c0.613 0.815 1.26 1.483 1.943 2.003 0.68 0.526 1.382 0.961 2.106 1.304 0.73 0.345 1.493 0.649 2.289 0.91 0.796 0.262 1.629 0.558 2.499 0.889v0l-0.565 1.047c-0.188-0.131-0.558-0.309-1.111-0.534-0.55-0.231-1.22-0.498-2.008-0.8-0.782-0.3-1.658-0.625-2.627-0.977-0.967-0.358-1.971-0.715-3.011-1.071-1.044-0.364-2.092-0.723-3.146-1.077-1.054-0.354-2.064-0.684-3.028-0.991-0.962-0.314-1.849-0.597-2.662-0.851-0.81-0.26-1.475-0.471-1.992-0.634z" fill="white"></path><path d="M0.826 78.775c0-4.197 3.402-7.599 7.599-7.599 4.197 0 7.599 3.402 7.599 7.599 0 4.197-3.402 7.599-7.599 7.599-4.197 0-7.599-3.402-7.599-7.599z" fill="white"></path><path d="M138.476 78.775c0-4.197 3.402-7.599 7.599-7.599 4.197 0 7.599 3.402 7.599 7.599 0 4.197-3.402 7.599-7.599 7.599-4.197 0-7.599-3.402-7.599-7.599z" fill="white"></path></g><g id="SvgjsG2893"></g></svg></g><defs><mask></mask></defs><mask><g id="SvgjsG2892"><svg viewBox="0 0 154.5 154.5" height="154.5" width="154.5"><g><svg viewBox="0 0 154.5 154.5" height="154.5" width="154.5"><g transform="matrix(1,0,0,1,61.46663066967624,50.2438949702109)"><svg viewBox="0 0 31.56673866064752 54.012210059578194" height="54.012210059578194" width="31.56673866064752"><g><svg viewBox="0 0 31.56673866064752 54.012210059578194" height="54.012210059578194" width="31.56673866064752"><g><svg viewBox="0 0 31.56673866064752 54.012210059578194" height="54.012210059578194" width="31.56673866064752"><g id="SvgjsG2891"><svg viewBox="0 0 31.56673866064752 54.012210059578194" height="54.012210059578194" width="31.56673866064752" id="SvgjsSvg2890"><g><svg viewBox="0 0 31.56673866064752 54.012210059578194" height="54.012210059578194" width="31.56673866064752"><g transform="matrix(1,0,0,1,0,0)"><svg width="31.56673866064752" viewBox="1.03 -30.42 17.23 29.490000000000002" height="54.012210059578194" data-palette-color="url(#9445de41-07c3-4f46-8925-3ae691b59363)"><path d="M8.79-30.42L8.79-30.42Q10.6-30.42 11.94-29.37 13.28-28.32 14.28-26.56 15.28-24.8 15.97-22.51 16.65-20.21 17.09-17.7 17.53-15.19 17.77-12.62 18.02-10.06 18.12-7.81 18.21-5.57 18.24-3.76 18.26-1.95 18.26-0.93L18.26-0.93 17.09-0.93 15.23-11.23Q14.99-11.47 14.14-11.52 13.28-11.57 12.13-11.47 10.99-11.38 9.64-11.21 8.3-11.04 7.1-10.96 5.91-10.89 4.93-10.91 3.96-10.94 3.52-11.23L3.52-11.23 3.52-0.93 1.03-0.93Q1.03-1.07 1.05-1.49 1.07-1.9 1.07-2.34 1.07-2.78 1.12-3.17 1.17-3.56 1.17-3.71L1.17-3.71Q1.46-6.54 1.64-9.45 1.81-12.35 2.05-15.09 2.29-17.82 2.71-20.31 3.13-22.8 3.91-24.83 4.69-26.86 5.86-28.3 7.03-29.74 8.79-30.42ZM9.57-28.17L9.57-28.17Q8.3-28.17 7.45-27.27 6.59-26.37 6.05-24.93 5.52-23.49 5.22-21.73 4.93-19.97 4.83-18.29 4.74-16.6 4.71-15.16 4.69-13.72 4.69-12.94L4.69-12.94Q7.08-12.94 9.57-13.31 12.06-13.67 14.26-14.06L14.26-14.06Q14.31-14.26 14.33-14.7 14.36-15.14 14.38-15.67 14.4-16.21 14.43-16.7 14.45-17.19 14.45-17.33L14.45-17.33Q14.45-18.95 14.28-20.41 14.11-21.88 13.6-23.27 13.09-24.66 12.13-25.88 11.18-27.1 9.57-28.17Z" opacity="1" transform="matrix(1,0,0,1,0,0)" fill="black" class="wordmark-text-0" id="SvgjsPath2889"></path></svg></g></svg></g></svg></g></svg></g></svg></g></svg></g><g id="SvgjsG2888"><path d="M2.769 53.121v0c0.211-0.629 0.575-1.114 1.092-1.456 0.52-0.348 1.142-0.592 1.867-0.73 0.733-0.142 1.537-0.201 2.412-0.176 0.873 0.032 1.773 0.118 2.7 0.259 0.921 0.14 1.84 0.317 2.757 0.534 0.919 0.21 1.774 0.43 2.565 0.66 0.792 0.23 1.504 0.445 2.137 0.643 0.624 0.203 1.114 0.363 1.47 0.483v0l-0.204 0.609-5.686-0.838c-0.112 0.061-0.228 0.238-0.347 0.53-0.111 0.288-0.217 0.637-0.32 1.048-0.103 0.411-0.2 0.858-0.292 1.343-0.098 0.483-0.205 0.938-0.321 1.366-0.113 0.421-0.23 0.802-0.352 1.143-0.126 0.332-0.265 0.558-0.417 0.676v0l5.362 1.8-0.435 1.295c-0.051-0.017-0.145-0.052-0.282-0.105-0.142-0.062-0.289-0.118-0.442-0.17-0.152-0.051-0.293-0.105-0.422-0.163-0.133-0.066-0.225-0.107-0.276-0.124v0c-0.95-0.432-1.917-0.845-2.901-1.239-0.988-0.402-1.945-0.805-2.87-1.207-0.918-0.4-1.785-0.818-2.599-1.254-0.815-0.436-1.529-0.906-2.145-1.409-0.613-0.51-1.099-1.051-1.458-1.624-0.365-0.575-0.563-1.206-0.593-1.894zM4.068 53.101v0c-0.147 0.438-0.112 0.86 0.105 1.265 0.211 0.403 0.536 0.781 0.977 1.133 0.44 0.353 0.947 0.682 1.523 0.988 0.573 0.313 1.147 0.583 1.72 0.811 0.574 0.228 1.106 0.431 1.597 0.61 0.499 0.175 0.886 0.308 1.159 0.4v0c0.279-0.832 0.5-1.701 0.663-2.607 0.163-0.906 0.306-1.763 0.428-2.57v0c-0.063-0.043-0.17-0.092-0.321-0.15-0.15-0.058-0.319-0.125-0.505-0.201-0.182-0.068-0.358-0.134-0.527-0.198-0.161-0.068-0.267-0.111-0.317-0.128v0c-0.559-0.188-1.103-0.335-1.632-0.442-0.527-0.113-1.062-0.162-1.604-0.146-0.542 0.016-1.082 0.117-1.618 0.304-0.536 0.187-1.086 0.498-1.648 0.931z" fill="black"></path><path d="M30.949 33.542v0c-0.696-0.752-0.995-1.488-0.897-2.21 0.099-0.721 0.482-1.392 1.15-2.01v0c0.26-0.241 0.511-0.464 0.751-0.668 0.245-0.199 0.495-0.367 0.752-0.505 0.257-0.147 0.536-0.259 0.837-0.338 0.302-0.088 0.655-0.136 1.058-0.144v0c-0.036-0.039-0.109-0.123-0.218-0.25-0.109-0.137-0.229-0.277-0.361-0.419-0.132-0.142-0.257-0.278-0.375-0.406-0.114-0.123-0.196-0.211-0.246-0.265v0c-0.233-0.222-0.523-0.52-0.869-0.893-0.346-0.373-0.731-0.729-1.154-1.068-0.423-0.338-0.887-0.603-1.391-0.793-0.505-0.19-1.038-0.194-1.599-0.011v0c-0.275 0.255-0.49 0.536-0.644 0.843-0.149 0.312-0.294 0.629-0.434 0.95-0.136 0.327-0.283 0.641-0.442 0.943-0.158 0.302-0.375 0.581-0.65 0.836v0c-0.3-0.324-0.45-0.688-0.449-1.091 0.001-0.403 0.092-0.797 0.273-1.184 0.181-0.387 0.41-0.745 0.688-1.076 0.278-0.331 0.535-0.605 0.771-0.824v0c0.272-0.179 0.532-0.338 0.778-0.475 0.256-0.137 0.546-0.209 0.869-0.215 0.323-0.007 0.705 0.081 1.149 0.264 0.453 0.183 1.002 0.51 1.647 0.98 0.65 0.475 1.427 1.116 2.33 1.923 0.903 0.807 1.975 1.827 3.217 3.059v0c0.184 0.149 0.264 0.349 0.241 0.599-0.019 0.255-0.108 0.534-0.267 0.836-0.158 0.302-0.358 0.619-0.598 0.952-0.24 0.332-0.496 0.652-0.769 0.958-0.282 0.307-0.554 0.595-0.815 0.865-0.266 0.265-0.49 0.481-0.672 0.65v0c-0.236 0.218-0.513 0.402-0.831 0.551-0.314 0.144-0.639 0.236-0.978 0.276-0.347 0.039-0.683 0.007-1.005-0.096-0.323-0.102-0.605-0.284-0.847-0.544zM32.229 29.794v0c-0.49 0.792-0.747 1.436-0.77 1.933-0.029 0.501 0.084 0.854 0.336 1.058 0.253 0.204 0.606 0.274 1.059 0.211 0.453-0.063 0.903-0.248 1.35-0.552 0.448-0.305 0.841-0.733 1.18-1.285 0.348-0.551 0.56-1.204 0.636-1.959v0c-0.508-0.233-0.936-0.379-1.284-0.44-0.344-0.056-0.654-0.051-0.932 0.014-0.287 0.065-0.552 0.187-0.796 0.368-0.244 0.18-0.503 0.398-0.779 0.652z" fill="black"></path><path d="M58.64 18.335v0c-0.106-0.36-0.288-0.908-0.547-1.644-0.252-0.738-0.534-1.571-0.849-2.5-0.306-0.924-0.631-1.906-0.973-2.945-0.343-1.039-0.664-2.022-0.964-2.947-0.3-0.926-0.573-1.762-0.82-2.507-0.245-0.739-0.424-1.288-0.536-1.647v0c-0.059-0.151-0.142-0.42-0.249-0.807-0.106-0.388-0.226-0.799-0.358-1.236-0.133-0.436-0.252-0.848-0.359-1.236-0.106-0.388-0.18-0.659-0.219-0.815v0c0.24-0.062 0.467-0.068 0.679-0.018 0.218 0.041 0.414 0.16 0.59 0.357v0c0.132 0.353 0.303 0.859 0.514 1.517 0.217 0.657 0.462 1.41 0.735 2.259 0.273 0.85 0.567 1.763 0.88 2.741 0.318 0.97 0.627 1.931 0.926 2.884v0c0.03-0.098 0.062-0.189 0.096-0.273 0.034-0.085 0.055-0.135 0.065-0.152v0c0.141-0.258 0.306-0.559 0.494-0.904 0.188-0.346 0.387-0.701 0.598-1.066 0.211-0.365 0.422-0.727 0.634-1.086 0.212-0.359 0.405-0.685 0.579-0.979 0.174-0.293 0.32-0.532 0.439-0.714 0.121-0.176 0.197-0.268 0.229-0.277v0l1.12 0.242c-0.232 0.336-0.492 0.724-0.779 1.165-0.295 0.442-0.574 0.904-0.837 1.386-0.263 0.482-0.509 0.981-0.737 1.496-0.229 0.508-0.394 0.997-0.495 1.466v0c0.005 0.019 0.012 0.059 0.02 0.119 0.002 0.062 0.008 0.112 0.018 0.151v0c0.003 0.013 0.02 0.05 0.05 0.112 0.021 0.057 0.035 0.095 0.039 0.114v0l7.788 5.449c0.003 0.013 0.018 0.044 0.045 0.092 0.02 0.05 0.035 0.095 0.044 0.134v0c0.083 0.324-0.025 0.618-0.323 0.882v0l-8.419-5.806c-0.018-0.016-0.046-0.044-0.083-0.082-0.036-0.032-0.08-0.069-0.133-0.112v0l1.583 4.957c0.023 0.091 0.069 0.255 0.137 0.494 0.068 0.238 0.145 0.499 0.232 0.78 0.08 0.284 0.155 0.551 0.227 0.803 0.078 0.25 0.128 0.417 0.149 0.501v0c-0.227 0.058-0.447 0.063-0.66 0.014-0.218-0.041-0.408-0.162-0.57-0.362z" fill="black"></path><path d="M89.373 15.031v0c0.249-0.994 0.703-1.647 1.361-1.958 0.658-0.312 1.429-0.357 2.313-0.136v0c0.344 0.086 0.668 0.174 0.969 0.264 0.3 0.096 0.578 0.214 0.833 0.354 0.263 0.135 0.51 0.307 0.741 0.517 0.239 0.205 0.472 0.474 0.699 0.807v0c0.013-0.052 0.043-0.158 0.09-0.319 0.055-0.166 0.107-0.343 0.154-0.531 0.047-0.188 0.092-0.367 0.134-0.536 0.041-0.162 0.07-0.279 0.088-0.351v0c0.059-0.317 0.15-0.722 0.274-1.216 0.124-0.494 0.212-1.01 0.264-1.55 0.052-0.539 0.02-1.072-0.097-1.598-0.117-0.526-0.405-0.975-0.864-1.346v0c-0.364-0.091-0.716-0.117-1.057-0.078-0.343 0.045-0.687 0.097-1.034 0.155-0.348 0.065-0.691 0.113-1.031 0.146-0.34 0.032-0.691 0.003-1.055-0.089v0c0.107-0.429 0.33-0.753 0.669-0.972 0.338-0.219 0.718-0.359 1.14-0.418 0.422-0.06 0.848-0.064 1.277-0.012 0.429 0.052 0.799 0.117 1.111 0.196v0c0.299 0.13 0.573 0.261 0.824 0.393 0.255 0.14 0.473 0.343 0.655 0.609 0.182 0.267 0.317 0.635 0.406 1.107 0.094 0.479 0.12 1.118 0.079 1.915-0.043 0.804-0.155 1.805-0.338 3.002-0.183 1.197-0.451 2.653-0.804 4.366v0c-0.025 0.236-0.148 0.412-0.371 0.529-0.224 0.123-0.506 0.201-0.845 0.234-0.34 0.032-0.714 0.039-1.124 0.018-0.409-0.02-0.817-0.06-1.223-0.12-0.411-0.068-0.801-0.139-1.169-0.21-0.367-0.078-0.671-0.147-0.912-0.208v0c-0.312-0.078-0.617-0.21-0.916-0.395-0.292-0.184-0.547-0.406-0.764-0.668-0.222-0.27-0.379-0.568-0.47-0.895-0.091-0.327-0.093-0.662-0.007-1.006zM93.212 14.056v0c-0.931 0.022-1.611 0.159-2.04 0.411-0.436 0.25-0.67 0.537-0.703 0.859-0.033 0.323 0.101 0.657 0.402 1.002 0.3 0.345 0.701 0.621 1.201 0.829 0.5 0.208 1.074 0.304 1.72 0.286 0.651-0.009 1.314-0.188 1.989-0.537v0c-0.083-0.552-0.194-0.991-0.333-1.316-0.141-0.318-0.315-0.576-0.521-0.773-0.211-0.205-0.459-0.36-0.743-0.466-0.284-0.106-0.608-0.204-0.972-0.295z" fill="black"></path><path d="M118.529 29.141v0c0.237 0.217 0.416 0.468 0.537 0.752 0.121 0.275 0.228 0.559 0.321 0.854 0.093 0.295 0.203 0.577 0.328 0.846 0.13 0.274 0.314 0.52 0.551 0.738v0c0.276 0.254 0.608 0.467 0.994 0.64 0.387 0.173 0.785 0.284 1.195 0.332 0.415 0.053 0.819 0.024 1.212-0.087 0.393-0.112 0.728-0.318 1.005-0.619v0c0.101-0.08 0.21-0.189 0.327-0.327 0.108-0.137 0.186-0.311 0.234-0.522 0.048-0.211 0.039-0.464-0.026-0.76-0.074-0.295-0.255-0.634-0.541-1.015-0.287-0.391-0.692-0.831-1.216-1.32-0.519-0.485-1.215-1.033-2.09-1.646v0c-0.197-0.181-0.335-0.412-0.414-0.693-0.088-0.281-0.126-0.571-0.115-0.87 0.006-0.294 0.051-0.581 0.134-0.859 0.078-0.274 0.197-0.497 0.355-0.669v0c0.471-0.513 0.965-0.833 1.48-0.96 0.512-0.121 1.028-0.12 1.551 0.005 0.513 0.125 1.017 0.343 1.514 0.653 0.492 0.306 0.955 0.658 1.389 1.057v0c0.197 0.181 0.415 0.399 0.654 0.655 0.238 0.255 0.428 0.524 0.568 0.807 0.14 0.283 0.201 0.589 0.182 0.917-0.015 0.323-0.174 0.65-0.477 0.98v0c-0.233 0.195-0.393 0.294-0.478 0.298-0.095 0.004-0.15-0.069-0.166-0.22-0.016-0.151-0.024-0.345-0.025-0.582 0.004-0.242-0.022-0.502-0.076-0.779-0.045-0.278-0.154-0.555-0.328-0.832-0.168-0.272-0.427-0.51-0.777-0.714v0c-0.301-0.276-0.632-0.525-0.992-0.746-0.355-0.217-0.722-0.367-1.1-0.451-0.378-0.074-0.756-0.058-1.136 0.049-0.379 0.116-0.745 0.366-1.098 0.751v0c-0.181 0.197-0.215 0.412-0.1 0.644 0.11 0.237 0.313 0.491 0.608 0.763 0.296 0.272 0.641 0.57 1.034 0.895 0.393 0.324 0.787 0.668 1.182 1.03 0.395 0.362 0.75 0.743 1.066 1.141 0.311 0.394 0.528 0.812 0.651 1.253 0.118 0.436 0.105 0.891-0.041 1.367-0.141 0.471-0.474 0.952-0.998 1.443v0c-0.349 0.38-0.79 0.643-1.324 0.789-0.53 0.141-1.08 0.186-1.651 0.135-0.571-0.051-1.129-0.191-1.675-0.419-0.536-0.228-0.978-0.539-1.327-0.931v0c-0.144-0.16-0.318-0.396-0.521-0.71-0.203-0.323-0.372-0.669-0.507-1.038-0.139-0.364-0.214-0.728-0.224-1.092-0.006-0.36 0.111-0.671 0.351-0.933z" fill="black"></path><path d="M152.274 48.941l0.155 0.882-8.087 3.518c0.143 0.085 0.348 0.188 0.617 0.309 0.266 0.114 0.531 0.267 0.795 0.459 0.265 0.192 0.513 0.419 0.744 0.679 0.231 0.26 0.402 0.57 0.511 0.929v0c0.168 0.714 0.08 1.364-0.263 1.95-0.352 0.582-0.847 1.099-1.484 1.553-0.635 0.46-1.359 0.868-2.171 1.226-0.814 0.351-1.606 0.645-2.374 0.881-0.769 0.236-1.46 0.429-2.076 0.577-0.609 0.146-1.03 0.238-1.265 0.276v0l-0.181-0.958c0.152-0.052 0.394-0.132 0.726-0.239 0.334-0.101 0.724-0.221 1.172-0.361 0.456-0.136 0.931-0.289 1.425-0.459 0.488-0.168 0.948-0.323 1.381-0.465 0.435-0.136 0.818-0.268 1.149-0.396 0.34-0.124 0.573-0.219 0.699-0.283v0c0.482-0.145 0.906-0.393 1.273-0.747 0.374-0.355 0.616-0.74 0.729-1.154 0.11-0.42 0.047-0.852-0.191-1.295-0.24-0.449-0.75-0.84-1.53-1.173v0c-0.873-0.231-1.689-0.339-2.45-0.325-0.76 0.014-1.484 0.104-2.17 0.27-0.695 0.162-1.391 0.373-2.088 0.634-0.692 0.253-1.43 0.507-2.213 0.762v0l-0.189-1.04c0.201-0.013 0.556-0.092 1.066-0.24 0.509-0.147 1.117-0.335 1.824-0.564 0.703-0.221 1.486-0.477 2.35-0.767 0.866-0.284 1.759-0.592 2.679-0.923 0.916-0.323 1.836-0.654 2.761-0.993 0.927-0.333 1.807-0.658 2.64-0.973 0.84-0.318 1.61-0.611 2.311-0.881 0.701-0.27 1.276-0.492 1.725-0.669z" fill="black"></path><path d="M23.052 98.18v0c0.245 0.709 0.253 1.397 0.023 2.065-0.23 0.668-0.622 1.317-1.176 1.949-0.548 0.629-1.225 1.232-2.032 1.808-0.807 0.577-1.674 1.124-2.6 1.643-0.922 0.51-1.87 0.987-2.844 1.43-0.967 0.441-1.884 0.832-2.751 1.175-0.867 0.342-1.652 0.642-2.357 0.9-0.7 0.249-1.253 0.444-1.658 0.584v0l-0.237-0.684 5.671-3.183c0.062-0.128 0.045-0.363-0.052-0.705-0.097-0.342-0.242-0.731-0.436-1.168-0.193-0.436-0.413-0.906-0.657-1.41-0.251-0.501-0.471-0.982-0.658-1.441-0.194-0.457-0.35-0.878-0.469-1.263-0.125-0.382-0.161-0.681-0.108-0.898v0l-6.049 2.092-0.505-1.462c0.057-0.02 0.17-0.052 0.338-0.096 0.167-0.051 0.336-0.105 0.507-0.165 0.171-0.059 0.336-0.105 0.494-0.139 0.158-0.034 0.266-0.06 0.323-0.08v0c1.156-0.265 2.311-0.562 3.466-0.89 1.164-0.324 2.297-0.624 3.4-0.899 1.103-0.275 2.17-0.499 3.201-0.671 1.03-0.179 1.994-0.25 2.893-0.214 0.896 0.03 1.708 0.175 2.435 0.434 0.723 0.267 1.336 0.697 1.838 1.288zM21.893 99.102v0c-0.173-0.5-0.495-0.857-0.965-1.069-0.468-0.207-1.021-0.32-1.659-0.341-0.636-0.014-1.318 0.041-2.048 0.166-0.723 0.122-1.42 0.279-2.091 0.468-0.678 0.192-1.301 0.379-1.869 0.561-0.566 0.188-1 0.335-1.304 0.44v0c0.324 0.937 0.727 1.868 1.21 2.793 0.476 0.927 0.939 1.794 1.389 2.602v0c0.089-0.009 0.22-0.041 0.393-0.093 0.175-0.046 0.368-0.103 0.58-0.169 0.213-0.06 0.416-0.119 0.608-0.178 0.201-0.055 0.329-0.093 0.386-0.112v0c0.627-0.217 1.216-0.459 1.768-0.729 0.552-0.269 1.066-0.595 1.543-0.98 0.474-0.391 0.884-0.855 1.23-1.392 0.352-0.54 0.628-1.195 0.829-1.967z" fill="black"></path><path d="M24.439 130.93v0c0.778-0.849 1.578-1.252 2.401-1.207 0.832 0.044 1.628 0.415 2.388 1.111v0c0.296 0.271 0.569 0.535 0.817 0.79 0.248 0.255 0.464 0.52 0.646 0.796 0.183 0.276 0.334 0.583 0.453 0.919 0.124 0.331 0.209 0.723 0.258 1.176v0c0.041-0.044 0.132-0.134 0.273-0.268 0.132-0.134 0.274-0.285 0.428-0.452 0.149-0.163 0.287-0.314 0.414-0.452 0.131-0.143 0.224-0.244 0.278-0.304v0c0.234-0.285 0.546-0.64 0.935-1.065 0.389-0.425 0.755-0.889 1.098-1.392 0.343-0.513 0.596-1.062 0.76-1.647 0.169-0.591 0.126-1.193-0.129-1.808v0c-0.316-0.29-0.655-0.505-1.017-0.645-0.362-0.141-0.733-0.276-1.113-0.407-0.38-0.121-0.746-0.257-1.098-0.407-0.362-0.15-0.699-0.368-1.01-0.652v0c0.344-0.375 0.745-0.58 1.203-0.615 0.454-0.029 0.907 0.036 1.36 0.197 0.448 0.165 0.873 0.391 1.274 0.676 0.396 0.281 0.73 0.546 1.002 0.795v0c0.226 0.289 0.428 0.569 0.605 0.842 0.178 0.272 0.282 0.59 0.312 0.953 0.04 0.363-0.022 0.807-0.183 1.331-0.162 0.524-0.482 1.171-0.961 1.94-0.469 0.77-1.118 1.701-1.947 2.795-0.824 1.098-1.876 2.405-3.156 3.921v0c-0.147 0.22-0.362 0.331-0.647 0.334-0.289-0.002-0.613-0.08-0.97-0.234-0.357-0.146-0.733-0.34-1.128-0.584-0.399-0.239-0.783-0.499-1.15-0.782-0.373-0.287-0.722-0.566-1.047-0.836-0.325-0.27-0.593-0.503-0.805-0.697v0c-0.267-0.244-0.498-0.538-0.693-0.88-0.195-0.342-0.327-0.704-0.396-1.085-0.074-0.386-0.071-0.765 0.007-1.138 0.083-0.378 0.263-0.718 0.538-1.019zM28.783 132.034v0c-0.936-0.476-1.688-0.706-2.256-0.69-0.563 0.02-0.947 0.181-1.152 0.484-0.214 0.303-0.263 0.708-0.146 1.215 0.117 0.497 0.368 0.987 0.754 1.468 0.386 0.471 0.904 0.878 1.554 1.219 0.65 0.332 1.404 0.51 2.263 0.534v0c0.22-0.598 0.348-1.094 0.383-1.489 0.03-0.4-0.005-0.754-0.103-1.062-0.099-0.309-0.261-0.593-0.486-0.854-0.23-0.265-0.5-0.54-0.811-0.825z" fill="black"></path><path d="M55.168 151.582v0c0.085-0.414 0.2-1.055 0.345-1.923 0.153-0.873 0.327-1.852 0.521-2.936 0.195-1.091 0.406-2.243 0.632-3.458 0.227-1.214 0.44-2.362 0.64-3.445 0.202-1.089 0.382-2.066 0.54-2.931 0.16-0.872 0.282-1.514 0.367-1.929v0c0.025-0.18 0.091-0.492 0.196-0.934 0.1-0.445 0.203-0.919 0.312-1.425 0.108-0.505 0.215-0.979 0.32-1.421 0.1-0.445 0.172-0.755 0.217-0.93v0c0.279 0.071 0.512 0.189 0.697 0.354 0.188 0.158 0.317 0.382 0.39 0.67v0c-0.067 0.425-0.17 1.021-0.311 1.787-0.146 0.764-0.315 1.644-0.507 2.639-0.191 0.995-0.394 2.06-0.606 3.194-0.22 1.133-0.44 2.255-0.662 3.367v0c0.09-0.081 0.174-0.153 0.252-0.215 0.078-0.063 0.13-0.102 0.155-0.117v0c0.274-0.179 0.596-0.387 0.967-0.624 0.373-0.244 0.764-0.49 1.173-0.738 0.409-0.248 0.817-0.493 1.225-0.735 0.407-0.242 0.775-0.463 1.102-0.663 0.334-0.198 0.608-0.353 0.823-0.464 0.221-0.109 0.352-0.159 0.391-0.149v0l0.966 0.848c-0.405 0.208-0.872 0.452-1.4 0.732-0.536 0.285-1.064 0.593-1.583 0.923-0.528 0.335-1.041 0.695-1.541 1.08-0.505 0.383-0.939 0.78-1.299 1.193v0c-0.005 0.019-0.019 0.061-0.042 0.124-0.031 0.068-0.052 0.122-0.062 0.16v0c-0.005 0.019-0.01 0.067-0.015 0.142-0.01 0.067-0.018 0.11-0.022 0.129v0l4.78 9.637c-0.005 0.019-0.012 0.059-0.02 0.12-0.002 0.062-0.008 0.112-0.018 0.151v0c-0.096 0.376-0.367 0.612-0.812 0.705v0l-5.184-10.332c-0.015-0.024-0.031-0.067-0.051-0.126-0.013-0.059-0.031-0.122-0.055-0.191v0l-1.133 5.787c-0.025 0.097-0.069 0.283-0.132 0.558-0.058 0.282-0.125 0.583-0.199 0.903-0.07 0.328-0.138 0.635-0.204 0.922-0.06 0.289-0.102 0.482-0.127 0.58v0c-0.253-0.065-0.476-0.18-0.668-0.347-0.188-0.158-0.307-0.382-0.358-0.672z" fill="black"></path><path d="M91.045 151.864v0c-0.278-1.118-0.17-2.007 0.322-2.668 0.497-0.668 1.245-1.127 2.246-1.376v0c0.39-0.097 0.76-0.178 1.11-0.244 0.349-0.066 0.69-0.099 1.021-0.098 0.331 0.001 0.67 0.044 1.016 0.131 0.344 0.08 0.718 0.225 1.122 0.436v0c-0.015-0.059-0.039-0.184-0.072-0.376-0.039-0.184-0.085-0.386-0.141-0.607-0.053-0.215-0.102-0.413-0.147-0.595-0.047-0.189-0.08-0.322-0.099-0.4v0c-0.108-0.353-0.232-0.809-0.371-1.367-0.139-0.559-0.323-1.121-0.553-1.685-0.238-0.569-0.555-1.084-0.952-1.544-0.399-0.467-0.925-0.764-1.578-0.892v0c-0.416 0.103-0.783 0.267-1.1 0.49-0.317 0.224-0.635 0.458-0.954 0.703-0.311 0.25-0.626 0.48-0.946 0.69-0.325 0.219-0.693 0.379-1.102 0.481v0c-0.123-0.494-0.072-0.942 0.153-1.342 0.226-0.394 0.532-0.736 0.915-1.025 0.385-0.282 0.808-0.511 1.269-0.687 0.454-0.175 0.859-0.306 1.216-0.395v0c0.366-0.029 0.711-0.042 1.036-0.04 0.325 0.002 0.647 0.091 0.967 0.267 0.325 0.168 0.66 0.464 1.007 0.889 0.347 0.425 0.709 1.049 1.086 1.873 0.382 0.816 0.799 1.872 1.252 3.168 0.459 1.294 0.967 2.893 1.523 4.798v0c0.102 0.244 0.076 0.485-0.08 0.723-0.161 0.24-0.405 0.466-0.732 0.679-0.319 0.217-0.689 0.423-1.11 0.617-0.419 0.201-0.849 0.376-1.287 0.527-0.445 0.152-0.87 0.288-1.275 0.409-0.405 0.121-0.747 0.216-1.027 0.286v0c-0.351 0.087-0.723 0.117-1.116 0.091-0.393-0.027-0.767-0.117-1.123-0.27-0.362-0.152-0.677-0.363-0.944-0.635-0.269-0.278-0.453-0.616-0.552-1.012zM94.367 148.855v0c-0.914 0.517-1.521 1.016-1.823 1.498-0.295 0.48-0.373 0.89-0.233 1.228 0.134 0.346 0.445 0.611 0.932 0.793 0.479 0.178 1.025 0.239 1.639 0.183 0.606-0.061 1.231-0.268 1.875-0.62 0.636-0.358 1.201-0.888 1.696-1.591v0c-0.376-0.514-0.719-0.895-1.028-1.142-0.316-0.246-0.63-0.413-0.943-0.501-0.312-0.088-0.638-0.111-0.979-0.068-0.348 0.045-0.726 0.118-1.136 0.22z" fill="black"></path><path d="M124.504 136.132v0c0.273-0.247 0.576-0.422 0.908-0.524 0.323-0.103 0.654-0.196 0.995-0.279 0.34-0.073 0.672-0.166 0.995-0.278 0.314-0.113 0.607-0.293 0.88-0.54v0c0.313-0.283 0.588-0.633 0.827-1.048 0.234-0.42 0.4-0.86 0.499-1.32 0.108-0.459 0.118-0.916 0.031-1.371-0.087-0.455-0.288-0.856-0.602-1.203v0c-0.08-0.118-0.189-0.249-0.329-0.393-0.145-0.14-0.334-0.249-0.568-0.327-0.233-0.078-0.517-0.092-0.851-0.042-0.344 0.05-0.748 0.217-1.213 0.503-0.464 0.285-0.999 0.693-1.603 1.223-0.605 0.539-1.295 1.269-2.071 2.189v0c-0.223 0.202-0.5 0.336-0.83 0.4-0.321 0.065-0.649 0.077-0.984 0.037-0.335-0.04-0.656-0.12-0.962-0.239-0.298-0.119-0.536-0.278-0.717-0.476v0c-0.526-0.581-0.832-1.167-0.916-1.76-0.085-0.592-0.033-1.173 0.156-1.742 0.194-0.574 0.491-1.123 0.892-1.649 0.395-0.521 0.841-1.007 1.338-1.456v0c0.223-0.202 0.49-0.426 0.801-0.672 0.315-0.241 0.642-0.424 0.98-0.55 0.329-0.126 0.677-0.161 1.044-0.105 0.363 0.051 0.713 0.263 1.05 0.635v0c0.204 0.285 0.301 0.477 0.291 0.576 0 0.1-0.088 0.152-0.263 0.158-0.171 0.011-0.394 0-0.667-0.033-0.269-0.027-0.563-0.028-0.882-0.001-0.31 0.027-0.63 0.123-0.96 0.288-0.331 0.164-0.626 0.432-0.886 0.803v0c-0.347 0.315-0.663 0.66-0.947 1.034-0.284 0.384-0.491 0.784-0.621 1.2-0.124 0.411-0.143 0.839-0.056 1.285 0.083 0.44 0.322 0.879 0.718 1.316v0c0.202 0.223 0.441 0.282 0.717 0.177 0.28-0.1 0.589-0.303 0.926-0.609 0.333-0.301 0.703-0.66 1.112-1.076 0.409-0.407 0.837-0.813 1.284-1.218 0.452-0.409 0.917-0.768 1.397-1.076 0.48-0.318 0.974-0.521 1.481-0.61 0.507-0.089 1.019-0.028 1.534 0.182 0.521 0.215 1.028 0.641 1.524 1.276v0c0.396 0.437 0.645 0.961 0.748 1.574 0.107 0.617 0.103 1.245-0.014 1.884-0.117 0.639-0.332 1.25-0.645 1.832-0.318 0.587-0.713 1.053-1.186 1.4v0c-0.197 0.152-0.485 0.322-0.864 0.512-0.38 0.2-0.783 0.358-1.211 0.474-0.432 0.112-0.849 0.155-1.251 0.131-0.411-0.025-0.754-0.189-1.029-0.492z" fill="black"></path><path d="M128.196 101.351l0.475-0.887 9.637 2.586c-0.066-0.173-0.176-0.404-0.329-0.693-0.153-0.289-0.28-0.612-0.381-0.968-0.099-0.362-0.157-0.738-0.174-1.128-0.024-0.392 0.045-0.787 0.208-1.184v0c0.354-0.756 0.892-1.268 1.613-1.538 0.715-0.272 1.515-0.382 2.399-0.33 0.887 0.045 1.814 0.197 2.781 0.456 0.974 0.261 1.882 0.556 2.725 0.884 0.847 0.337 1.594 0.656 2.24 0.957 0.644 0.307 1.083 0.524 1.316 0.649v0l-0.509 0.981c-0.17-0.061-0.44-0.163-0.808-0.308-0.37-0.139-0.804-0.307-1.302-0.506-0.498-0.199-1.025-0.397-1.58-0.594-0.549-0.195-1.064-0.386-1.546-0.571-0.484-0.179-0.919-0.334-1.306-0.465-0.383-0.122-0.654-0.201-0.812-0.236v0c-0.53-0.21-1.081-0.289-1.654-0.236-0.579 0.05-1.064 0.222-1.453 0.517-0.393 0.287-0.643 0.71-0.75 1.269-0.102 0.568 0.072 1.277 0.523 2.127v0c0.613 0.815 1.26 1.483 1.943 2.003 0.68 0.526 1.382 0.961 2.106 1.304 0.73 0.345 1.493 0.649 2.289 0.91 0.796 0.262 1.629 0.558 2.499 0.889v0l-0.565 1.047c-0.188-0.131-0.558-0.309-1.111-0.534-0.55-0.231-1.22-0.498-2.008-0.8-0.782-0.3-1.658-0.625-2.627-0.977-0.967-0.358-1.971-0.715-3.011-1.071-1.044-0.364-2.092-0.723-3.146-1.077-1.054-0.354-2.064-0.684-3.028-0.991-0.962-0.314-1.849-0.597-2.662-0.851-0.81-0.26-1.475-0.471-1.992-0.634z" fill="black"></path><path d="M0.826 78.775c0-4.197 3.402-7.599 7.599-7.599 4.197 0 7.599 3.402 7.599 7.599 0 4.197-3.402 7.599-7.599 7.599-4.197 0-7.599-3.402-7.599-7.599z" fill="black"></path><path d="M138.476 78.775c0-4.197 3.402-7.599 7.599-7.599 4.197 0 7.599 3.402 7.599 7.599 0 4.197-3.402 7.599-7.599 7.599-4.197 0-7.599-3.402-7.599-7.599z" fill="black"></path></g><g id="SvgjsG2887"></g></svg></g><defs><mask></mask></defs></svg><rect width="154.5" height="154.5" fill="black" stroke="none" visibility="hidden"></rect></g></mask></svg><rect width="154.5" height="154.5" fill="black" stroke="none" visibility="hidden"></rect></g></mask><linearGradient x1="0.054" x2="0.941" y1="0.5" y2="0.5" id="98c612cd-f59a-4800-8e35-ebb4f49332cf"><stop stop-color="#9c7945" offset="0"></stop><stop stop-color="#faf3aa" offset="0.498"></stop><stop stop-color="#9c7945" offset="1"></stop></linearGradient><rect width="154.5" height="154.5" fill="url(#98c612cd-f59a-4800-8e35-ebb4f49332cf)" mask="url(#5c3d7846-223f-4269-a83b-b236d6948ec2)" data-fill-palette-color="accent"></rect></svg><rect width="154.5" height="154.5" fill="none" stroke="none" visibility="hidden"></rect></g></svg></g></svg>